<svg width="442" height="512" viewBox="0 0 442 512" fill="none" xmlns="http://www.w3.org/2000/svg">
<path d="M194.726 0H246.653V51.927H259.635C269.964 51.927 279.87 56.0301 287.173 63.3338C294.477 70.6374 298.58 80.5433 298.58 90.8722V181.744L287.156 193.168L329.736 266.905C358.556 238.604 376.471 199.4 376.471 155.781H428.398C428.398 218.613 400.617 274.953 356.479 313.12L438.004 454.361L441.379 512L392.828 480.325L313.12 341.939C285.598 355.7 253.923 363.489 220.69 363.489C187.456 363.489 155.781 355.7 128.26 341.939L48.5517 480.325L0 512L3.37526 454.361L154.223 193.168L142.799 181.744V90.8722C142.799 80.5433 146.902 70.6374 154.206 63.3338C161.51 56.0301 171.415 51.927 181.744 51.927H194.726V0ZM154.223 296.763C174.475 306.369 197.063 311.562 220.69 311.562C244.316 311.562 266.905 306.369 287.156 296.763L249.249 231.075H248.99C232.892 246.653 208.487 246.653 192.389 231.075H192.13L154.223 296.763ZM220.69 103.854C213.804 103.854 207.2 106.589 202.331 111.458C197.462 116.328 194.726 122.932 194.726 129.817C194.726 136.703 197.462 143.307 202.331 148.176C207.2 153.046 213.804 155.781 220.69 155.781C227.576 155.781 234.179 153.046 239.049 148.176C243.918 143.307 246.653 136.703 246.653 129.817C246.653 122.932 243.918 116.328 239.049 111.458C234.179 106.589 227.576 103.854 220.69 103.854Z" fill="#C17C64"/>
</svg>
