<svg width="512" height="417" viewBox="0 0 512 417" fill="none" xmlns="http://www.w3.org/2000/svg">
<path d="M269.537 0V0.232695C262.324 0.232695 255.11 2.3269 249.293 6.28263C237.659 14.4268 236.263 27.9228 246.734 36.5323L313.283 90.2837L110.145 90.9817H109.912C93.1583 90.9817 76.87 101.918 73.6123 115.88C69.8893 130.074 81.5238 141.941 99.2082 141.941L202.29 141.708L17.7668 283.416C0.082362 296.68 -5.2695 318.785 5.66692 332.746C16.836 346.941 40.3377 346.941 58.2548 332.746L158.311 250.607C158.311 250.607 156.683 261.776 156.915 268.291C156.915 275.039 159.242 288.07 162.267 298.076C169.015 319.716 180.417 339.494 196.24 356.946C212.528 374.863 232.772 389.29 256.041 399.528C280.008 410.465 306.535 416.049 333.76 416.049C360.752 416.049 387.511 410.232 411.711 399.296C434.98 389.057 454.991 374.398 471.279 356.481C487.102 339.029 498.504 319.018 505.252 297.61C508.51 286.674 510.604 275.737 512 264.801C512 253.865 512 242.928 510.604 231.992C507.579 210.817 500.366 190.806 488.731 172.656C478.493 156.135 465.462 141.475 449.406 129.143L289.083 6.04994C283.731 2.09421 276.751 0 269.537 0M333.76 141.708C360.752 141.708 386.115 150.55 406.359 166.839C416.597 175.215 424.741 184.988 430.559 195.925C436.841 206.629 440.797 219.426 442.193 232.457C443.124 245.488 441.262 258.518 436.841 271.084C432.187 283.649 424.741 295.283 414.736 305.754C394.026 326.697 365.173 338.796 333.76 338.796C302.579 338.796 273.493 326.929 252.784 305.987C242.778 295.749 235.332 283.882 230.678 271.316C226.257 258.984 224.395 245.953 225.559 232.69C226.722 219.659 230.678 207.327 236.728 196.158C242.778 185.221 251.155 175.448 261.393 167.071C281.404 150.55 307 141.708 333.76 141.708M336.086 174.285C317.937 174.285 301.183 180.8 288.85 191.271C276.285 201.975 267.676 216.867 266.978 234.086C266.047 251.538 273.028 267.826 285.36 279.926C297.925 292.258 316.075 299.704 336.086 299.704C356.098 299.704 374.015 292.258 386.813 279.926C399.145 267.826 406.126 251.538 405.195 234.086C404.265 216.867 395.655 201.975 383.323 191.271C370.99 180.8 354.236 174.285 336.086 174.285Z" fill="#C17C64"/>
</svg>
