<svg width="512" height="512" viewBox="0 0 512 512" fill="none" xmlns="http://www.w3.org/2000/svg">
<path d="M426.667 0H85.3618C38.2735 0.142175 0.142175 38.2735 0 85.3902V426.667C0 473.556 38.4441 512 85.3618 512H426.667C473.556 512 512 473.556 512 426.667V85.3902C512 38.4441 473.556 0 426.667 0V0ZM380.033 359.617C375.711 369.854 368.972 378.953 360.328 385.976C351.371 393.17 339.997 399.142 326.035 403.435C312.102 407.729 295.496 409.947 276.274 409.947H139.075V111.238H284.179C310.993 111.238 332.519 117.294 348.641 129.607C364.821 142.004 372.925 160.373 372.925 185.282C372.925 200.296 369.228 213.234 361.863 223.868C354.499 234.475 343.949 242.749 330.272 248.55V249.517C348.527 253.356 362.603 261.971 371.901 275.45C381.199 288.899 385.919 305.846 385.919 326.32C385.919 337.836 383.701 348.726 379.521 358.935L380.09 359.532V359.617H380.033ZM320.775 285.999C311.988 277.98 299.761 274.085 283.895 274.085H191.652V367.238H284.151C299.904 367.238 312.33 363.143 321.059 354.868C329.817 346.651 334.253 334.935 334.253 319.922C334.111 305.192 329.817 293.79 321.059 285.999H320.661H320.775ZM307.951 225.745C316.453 218.608 320.576 208.315 320.576 194.922C320.576 179.965 316.851 169.273 309.287 163.188C301.78 157.103 290.918 153.918 276.701 153.918H191.367V236.323H276.701C289.098 236.351 299.733 232.712 307.951 225.745Z" fill="#C17C64"/>
</svg>
