<svg width="512" height="486" viewBox="0 0 512 486" fill="none" xmlns="http://www.w3.org/2000/svg">
<path d="M283.984 242.672C283.984 108.672 175.328 0 41.344 0H0V106.672H41.344C116.496 106.672 177.328 167.584 177.328 242.672C177.328 317.76 116.512 378.672 41.344 378.672H0V485.344H41.344C175.344 485.344 283.984 376.672 283.984 242.672ZM512 148C512 66.256 445.76 0.0159998 363.984 0.0159998H193.312C235.312 26.336 269.744 63.104 293.232 106.688H363.968C386.816 106.688 405.312 125.184 405.312 148.016C405.312 170.864 386.816 189.36 363.968 189.36H322.64C329.312 224.608 329.312 260.784 322.64 296.032H363.968C386.736 296.032 405.312 314.528 405.312 337.376C405.312 360.288 386.816 378.784 363.968 378.784H293.232C269.744 422.368 235.312 459.12 193.312 485.456H363.984C398.592 485.456 432.08 473.296 458.656 451.2C521.392 398.864 530.08 305.616 477.744 242.8C499.904 216.128 511.984 182.64 511.984 148.032L512 148Z" fill="#C17C64"/>
</svg>
