<svg width="434" height="512" viewBox="0 0 434 512" fill="none" xmlns="http://www.w3.org/2000/svg">
<path d="M0.211085 240.207C5.2771 214.807 8.65444 188.914 15.6906 164.006C57.9074 13.2215 230.996 -49.4705 349.907 43.9694C419.565 98.7808 436.873 176.038 433.426 263.145H40.8096C34.8992 419.417 147.407 513.772 290.803 465.645C341.112 448.758 370.734 409.356 385.58 360.103C393.109 335.406 405.563 331.536 428.782 338.572C416.891 400.209 389.942 451.713 333.653 483.939C249.22 532.206 128.691 516.586 65.2953 449.532C27.8631 410.13 11.9614 361.088 4.92529 308.106C3.86987 299.662 1.68867 291.36 0 282.987C0.140723 268.727 0.211085 254.467 0.211085 240.207V240.207ZM41.5132 229.723H396.345C394.023 116.723 323.662 36.4407 227.478 35.7371C121.936 34.8928 46.0867 113.275 41.5132 229.723V229.723Z" fill="#C17C64"/>
</svg>
