<svg width="333" height="512" viewBox="0 0 333 512" fill="none" xmlns="http://www.w3.org/2000/svg">
<path d="M76.8 0C34.3846 0 0 34.3846 0 76.8C0 119.215 34.3846 153.6 76.8 153.6H256C298.417 153.6 332.8 119.215 332.8 76.8C332.8 34.3846 298.417 0 256 0H76.8Z" fill="#C17C64"/>
<path d="M256 179.2C213.583 179.2 179.2 213.583 179.2 256C179.2 298.417 213.583 332.8 256 332.8C298.417 332.8 332.8 298.417 332.8 256C332.8 213.583 298.417 179.2 256 179.2Z" fill="#C17C64"/>
<path d="M0 256C0 213.583 34.3846 179.2 76.8 179.2H153.6V332.8H76.8C34.3846 332.8 0 298.417 0 256Z" fill="#C17C64"/>
<path d="M76.8 358.4C34.3846 358.4 0 392.783 0 435.2C0 477.617 34.3846 512 76.8 512C119.217 512 153.6 477.617 153.6 435.2V358.4H76.8Z" fill="#C17C64"/>
</svg>
