<svg width="512" height="512" viewBox="0 0 512 512" fill="none" xmlns="http://www.w3.org/2000/svg">
<path fill-rule="evenodd" clip-rule="evenodd" d="M172.049 108.008H225.383L302.076 364.949H255.749L236.673 291.76H161.927L142.461 364.949H101.584L172.049 120.077V108.008ZM226.162 253.997L199.689 145.381L172.438 253.997H226.162ZM381.495 173.998H339.45V364.949H381.495V173.998ZM359.931 99.8107C346.31 99.8107 335.268 110.726 335.268 124.191C335.268 137.657 346.31 148.572 359.931 148.572C373.553 148.572 384.595 137.657 384.595 124.191C384.595 110.726 373.553 99.8107 359.931 99.8107ZM512 512H0V0H512V512Z" fill="#C17C64"/>
</svg>
