<svg width="512" height="512" viewBox="0 0 512 512" fill="none" xmlns="http://www.w3.org/2000/svg">
<g clip-path="url(#clip0_10_47)">
<path d="M276.75 286.62C274.82 288.62 274.46 289.13 274.01 289.48C273.567 289.902 273.034 290.217 272.45 290.4C271.247 290.635 270.025 290.756 268.8 290.76C211.11 290.76 153.42 290.76 95.22 290.76C88.52 301.64 87.34 313.84 84.89 325.55C78.4 356.55 72.2 387.6 65.96 418.64C64.85 424.16 61.96 427.53 56.11 427.55C37.88 427.6 19.65 427.55 0 427.55C3 412.28 5.26 399.26 8 386.32C22.65 316.61 37 246.82 52.38 177.32C56.96 156.67 60.29 135.32 73.62 117.32C88 98 106.28 85.14 130.43 84.83C194.26 84.04 258.11 84.54 321.95 84.58C323.08 84.58 324.22 85.26 327.23 86.23C323.53 104.64 319.79 123.29 315.88 142.74C309.57 143.04 304.19 143.51 298.8 143.51C252.133 143.57 205.467 143.587 158.8 143.56C153.28 143.56 147.67 143.17 142.25 143.98C133.4 145.32 125.05 149.21 122.25 158.14C114.96 181.33 110.25 205.14 105.99 231.19C129.27 232.98 151.19 231.79 172.99 232.01C194.43 232.23 215.87 232.06 238.08 232.06L276.75 286.62Z" fill="#C17C64"/>
<path d="M234.92 173.27C258.13 173.27 277.71 173.47 297.28 173.17C305.39 173.05 309.18 178.06 313.07 183.84C327.72 205.64 342.55 227.32 358.6 250.96C366.23 243.27 373.08 236.66 379.6 229.74C394.73 213.69 409.49 197.28 424.87 181.48C428.45 177.81 433.87 173.81 438.52 173.66C462.37 172.87 486.26 173.29 512 173.29C509.55 176.9 508.51 179.01 507 180.63C474.333 214.743 441.623 248.84 408.87 282.92C403.49 288.55 398.87 294.86 393.59 301.16C408.59 323.11 422.71 343.77 436.84 364.42C450.63 384.58 464.44 404.72 480.1 427.6C456.93 427.6 436.36 427.66 415.78 427.6C408.52 427.6 405.53 421.84 402.07 416.76C388.31 396.513 374.507 376.297 360.66 356.11C357.93 352.11 354.91 348.38 351.13 343.32C341.67 353.76 332.85 363.89 323.61 373.61C307.95 390.07 292.113 406.363 276.1 422.49C273.7 424.9 269.92 427.31 266.74 427.37C242.4 427.77 218.05 427.59 190.86 427.59C213.49 403.29 233.78 381.28 254.32 359.51C274.86 337.74 297.74 317.92 316.61 292.32L234.92 173.27Z" fill="#C17C64"/>
</g>
<defs>
<clipPath id="clip0_10_47">
<rect width="512" height="512" fill="white"/>
</clipPath>
</defs>
</svg>
