<svg width="512" height="494" viewBox="0 0 512 494" fill="none" xmlns="http://www.w3.org/2000/svg">
<path d="M32.5367 115.791C-12.8102 180.939 -7.19255 265.673 27.4744 334.858C28.2647 336.545 29.1405 338.147 29.9949 339.749C30.4861 340.86 31.0415 341.885 31.6396 342.932C31.9172 343.53 32.3017 344.149 32.6435 344.704C33.1988 345.815 33.7969 346.883 34.3736 347.951L37.7271 353.611C38.3465 354.658 38.9446 355.683 39.6495 356.73C40.8243 358.738 42.2127 360.724 43.4302 362.732C43.9855 363.565 44.4982 364.398 45.1176 365.231C47.1891 368.485 49.3983 371.649 51.7391 374.715C53.4052 377 55.0713 379.222 56.8655 381.443C57.4422 382.255 58.083 383.067 58.6811 383.878L63.4016 389.624C63.9783 390.286 64.555 391.055 65.1744 391.739C67.2677 394.259 69.4891 396.716 71.7105 399.193C71.7105 399.236 71.7746 399.279 71.8173 399.343C74.5224 402.763 77.5557 405.911 80.8739 408.741C82.5827 410.493 84.2914 412.244 86.107 413.953L88.2644 416.025C90.6353 418.246 93.0062 420.468 95.5053 422.604C95.5481 422.604 95.5694 422.646 95.6121 422.668L96.8297 423.736C99.0084 425.637 101.208 427.538 103.451 429.289L106.121 431.532C107.937 432.984 109.816 434.373 111.675 435.804L114.58 438.025C116.566 439.521 118.681 440.994 120.71 442.447C121.457 442.981 122.205 443.515 122.974 444.006L123.593 444.497L129.596 448.449L132.159 450.158C135.299 452.166 138.417 454.067 141.514 455.946C142.411 456.395 143.309 456.886 144.142 457.399C146.448 458.723 148.841 460.069 151.169 461.308C152.451 462.034 153.775 462.653 155.099 463.315C156.701 464.212 158.367 465.088 160.076 465.985C160.489 466.111 160.89 466.276 161.272 466.477C161.977 466.797 162.639 467.139 163.323 467.481C165.886 468.762 168.556 469.98 171.333 471.197C171.845 471.411 172.401 471.624 172.956 471.923C176.032 473.269 179.108 474.551 182.29 475.811C183.016 476.024 183.785 476.388 184.533 476.665C187.417 477.755 190.386 478.865 193.312 479.912L194.38 480.296C197.648 481.407 200.873 482.475 204.184 483.5C204.953 483.714 205.743 483.992 206.555 484.205C209.951 485.231 213.241 486.448 216.658 487.11C435.81 527.053 499.505 355.342 499.505 355.342C445.998 425.017 351.054 443.387 261.129 422.945C257.797 422.176 254.465 421.108 251.111 420.126C247.047 418.926 243.009 417.637 239 416.26L237.676 415.747C234.771 414.765 231.973 413.675 229.132 412.586C228.36 412.265 227.576 411.973 226.783 411.71C223.643 410.45 220.588 409.147 217.555 407.801C216.893 407.588 216.338 407.289 215.676 407.032C213.095 405.844 210.525 404.633 207.965 403.401C207.174 403.059 206.469 402.696 205.701 402.29C203.693 401.351 201.685 400.283 199.72 399.257C198.37 398.609 197.038 397.926 195.725 397.207C193.312 395.925 190.898 394.537 188.485 393.213C187.758 392.7 186.925 392.273 186.092 391.803C182.943 389.938 179.824 388.023 176.737 386.057C175.878 385.523 175.037 384.96 174.216 384.37C171.95 382.972 169.727 381.505 167.552 379.969C166.804 379.478 166.121 378.944 165.352 378.41C163.23 376.941 161.136 375.431 159.072 373.882C158.175 373.156 157.214 372.472 156.253 371.746C154.373 370.272 152.472 368.862 150.592 367.303L148.072 365.295C145.653 363.344 143.274 361.343 140.938 359.293C140.695 359.056 140.43 358.841 140.147 358.652L132.735 351.903L130.599 349.895C128.848 348.122 127.054 346.413 125.26 344.662L123.188 342.526C120.931 340.281 118.731 337.98 116.587 335.626L116.267 335.285C114.003 332.807 111.803 330.287 109.581 327.723C109.005 327.061 108.471 326.356 107.873 325.651L103.045 319.735C100.582 316.577 98.1615 313.387 95.783 310.166C45.9079 242.071 27.8589 148.087 67.7803 71M173.234 60.9181C140.361 108.102 142.219 171.199 167.808 221.095C172.037 229.494 176.87 237.575 182.269 245.275C187.182 252.323 192.607 260.654 199.186 266.335C201.471 268.941 203.949 271.462 206.534 274.003L208.456 275.926C210.891 278.275 213.39 280.582 215.932 282.868L216.252 283.145C219.133 285.66 222.082 288.096 225.095 290.451C225.821 290.942 226.441 291.518 227.146 292.01C230.136 294.317 233.148 296.538 236.266 298.738L236.587 298.93C237.911 299.892 239.321 300.767 240.816 301.707C241.414 302.092 242.098 302.604 242.738 302.989C245.003 304.441 247.224 305.808 249.509 307.197C249.873 307.346 250.193 307.538 250.535 307.688C252.457 308.863 254.55 309.995 256.558 311.041C257.263 311.469 257.947 311.789 258.673 312.195C260.104 312.9 261.514 313.647 262.881 314.373L263.564 314.673C266.448 316.082 269.395 317.407 272.279 318.731C273.005 319.009 273.625 319.244 274.244 319.543C276.615 320.568 279.029 321.55 281.4 322.469C282.468 322.832 283.472 323.259 284.475 323.58C286.654 324.391 288.94 325.139 291.097 325.886L294.087 326.848C297.206 327.809 300.367 329.069 303.657 329.603C472.826 357.648 512 227.354 512 227.354C476.735 278.105 408.49 302.284 335.76 283.402C332.544 282.569 329.353 281.643 326.191 280.625C325.166 280.347 324.269 280.027 323.286 279.728C321.065 278.959 318.779 278.211 316.622 277.4L313.546 276.246C311.154 275.285 308.719 274.388 306.391 273.363C305.664 273.042 305.002 272.829 304.447 272.508C301.456 271.163 298.445 269.838 295.54 268.407L291.14 266.122L288.598 264.84C286.633 263.815 284.817 262.747 282.938 261.636C282.483 261.419 282.04 261.177 281.613 260.91C279.349 259.5 277 258.133 274.842 256.681C274.116 256.275 273.454 255.784 272.77 255.356L268.327 252.451C265.252 250.315 262.24 248.009 259.207 245.787C258.523 245.168 257.861 244.655 257.199 244.1C225.223 218.959 199.997 184.591 188.036 145.674C175.434 105.218 178.21 59.8502 199.976 23.0259M291.546 19.886C272.151 48.3372 270.293 83.6663 283.642 115.044C297.825 148.365 326.832 174.531 360.623 186.92C362.011 187.454 363.357 187.902 364.788 188.415L366.668 188.991C368.633 189.611 370.62 190.337 372.649 190.786C466.119 208.813 491.409 142.79 498.223 133.093C475.966 165.047 438.65 172.715 392.876 161.587C389.142 160.654 385.462 159.513 381.855 158.169C377.37 156.593 372.971 154.782 368.676 152.744C360.547 148.804 352.821 144.082 345.607 138.646C304.596 107.589 279.2 48.2945 305.942 0" fill="#C17C64"/>
</svg>
