<svg width="512" height="450" viewBox="0 0 512 450" fill="none" xmlns="http://www.w3.org/2000/svg">
<path d="M436.423 128C438.45 128.669 440.52 129.168 442.283 130.524C445.577 133.051 447.19 136.458 447.782 140.436C448.567 145.573 447.11 150.372 445.393 155.086C441.443 165.943 435.375 175.634 428.668 184.944C425.206 189.75 421.646 194.491 417.935 199.107C413.75 204.32 409.371 209.372 405.056 214.465C396.847 224.123 388.043 233.225 378.957 242.067C370.009 250.758 360.512 258.811 350.202 265.862C346.492 268.398 342.754 270.898 338.924 273.25C334.836 275.759 335.857 280.822 339.472 282.45C341.559 283.421 343.818 283.968 346.118 284.057C349.932 284.18 353.759 284.202 357.574 284.097C361.499 283.993 365.437 283.855 369.334 283.423C374.504 282.849 379.638 281.96 384.789 281.233C388.322 280.736 391.842 280.083 395.399 279.862C398.957 279.641 400.637 281.037 401.821 284.376C402.189 285.328 402.474 286.31 402.673 287.311C403.176 290.283 401.904 292.457 399.463 294.058C396.467 296.027 393.09 297.042 389.68 297.953C382.733 299.863 375.617 301.096 368.433 301.633C362.431 302.044 356.412 302.504 350.405 302.464C341.113 302.406 331.972 301.176 323.37 297.303C320.669 296.076 317.976 294.849 315.21 293.791C314.215 293.445 313.137 293.411 312.122 293.696C310.529 294.228 308.989 294.909 307.522 295.73C300.052 299.631 292.607 303.581 285.137 307.5C281.149 309.633 276.694 310.746 272.172 310.739C265.873 310.705 259.97 309.012 254.742 305.329C250.215 302.142 246.94 298.024 245.235 292.715C244.224 289.578 244.22 286.339 244.622 283.153C245.334 277.433 246.293 271.744 247.14 266.043C247.154 265.676 247.139 265.309 247.094 264.945C245.781 265.641 244.61 266.224 243.472 266.868C234.208 272.085 225.428 278.118 217.235 284.895C211.522 289.621 206.002 294.527 200.471 299.434C197.404 302.142 194.506 305.013 191.498 307.776C189.833 309.309 188.005 310.594 185.797 311.266C183.197 312.054 180.728 311.6 178.364 310.453C174.96 308.807 172.133 306.519 171.618 302.52C171.399 300.492 171.512 298.442 171.952 296.45C172.582 293.295 173.448 290.192 174.543 287.167C175.368 284.944 176.791 282.941 177.916 280.825C178.303 280.098 179.177 279.353 178.441 278.488C177.594 277.488 176.748 278.439 175.987 278.795C170.416 281.352 164.736 283.702 159.336 286.581C152.49 290.229 145.773 294.113 139.186 298.235C129.886 304.062 120.806 310.272 111.588 316.234C107.984 318.565 104.292 320.835 99.9656 321.583C95.4547 322.359 91.0052 322.196 86.89 319.853C83.8572 318.114 81.8363 315.612 81.1801 312.103C80.6189 309.101 81.7351 306.583 83.4463 304.246C86.4453 300.178 89.4781 296.131 92.5446 292.108C99.1948 283.439 105.866 274.783 112.557 266.141C112.799 265.834 112.989 265.466 113.421 264.783C112.195 264.973 111.275 265.068 110.389 265.267C103.307 266.836 96.3576 268.948 89.6007 271.585C83.1611 274.081 76.6601 276.366 70.2449 278.893C61.2539 282.432 52.5511 286.615 43.9465 291.007C36.0748 295.024 28.2 299.042 20.273 302.967C17.8536 304.163 15.2685 305.028 12.7509 306.034C8.88707 307.568 4.21677 305.703 1.91995 301.661C1.6133 301.13 1.30665 300.609 1 300.081V295.788C1.87396 293.902 2.59459 291.921 3.6832 290.17C4.3517 289.093 5.4771 288.198 6.57798 287.52C14.813 282.469 23.3089 277.856 32.03 273.701C43.141 268.385 54.4759 263.597 66.0346 259.336C71.0146 257.496 75.9854 255.601 81.0298 253.944C92.0995 250.306 103.456 247.607 114.979 245.876C117.902 245.422 120.856 245.201 123.814 245.216C128.008 245.197 132.061 246.735 135.188 249.531C140.272 254.076 141.409 260.333 138.187 266.678C136.457 270.082 134.295 273.265 132.314 276.538C131.837 277.227 131.447 277.973 131.152 278.758C132.299 278.264 133.461 277.798 134.593 277.271C139.864 274.802 145.105 272.256 150.404 269.849C156.823 266.935 163.268 264.083 169.738 261.293C176.214 258.514 182.734 255.843 189.262 253.184C191.187 252.358 193.173 251.683 195.202 251.163C202.062 249.534 206.282 251.574 210.32 256.806C211.375 258.174 212.255 259.676 213.319 261.268C213.812 261.07 214.293 260.844 214.76 260.593C220.486 257.131 226.168 253.595 231.933 250.2C237.431 246.958 242.972 243.778 248.572 240.723C252.816 238.408 257.354 236.737 262.206 236.384C267.057 236.031 271.65 236.78 275.217 240.717C276.861 242.517 277.932 244.765 278.293 247.175C278.654 249.586 278.288 252.049 277.244 254.251C274.677 259.873 272.012 265.46 269.749 271.201C268.216 275.078 267.232 279.175 266.18 283.223C265.949 284.367 266.04 285.553 266.44 286.649C267.002 288.305 268.391 289.065 270.163 289.041C274.104 288.986 277.829 287.946 281.491 286.606C285.759 285.039 289.409 282.386 293.085 279.801C294.379 278.881 295.578 277.826 296.928 277.013C299.528 275.452 301.018 272.995 302.181 270.395C303.803 266.764 305.18 263.016 306.566 259.284C309.05 252.601 312.263 246.281 315.906 240.171C322.675 228.919 330.097 218.071 338.132 207.685C343.566 200.604 349.341 193.783 355.032 186.901C361.971 178.504 369.616 170.748 377.516 163.287C389.043 152.384 401.434 142.546 415.2 134.572C418.818 132.478 422.416 130.294 426.497 129.156C427.969 128.748 429.456 128.411 430.937 128.04L436.423 128ZM420.438 157.322C420.459 156.07 419.873 155.518 418.981 155.724C418.538 155.834 418.126 156.044 417.776 156.337C414.452 159.122 411.103 161.876 407.85 164.743C404.904 167.338 402.018 170.003 399.193 172.739C394.023 177.75 388.831 182.746 383.823 187.913C379.224 192.676 374.802 197.635 370.349 202.548C367.916 205.232 365.536 207.962 363.207 210.736C359.984 214.561 356.725 218.357 353.667 222.307C348.574 228.886 343.625 235.574 338.641 242.242C338.306 242.693 338.044 243.195 337.866 243.729C337.274 245.526 338.359 246.909 340.202 246.541C341.3 246.34 342.336 245.888 343.229 245.219C345.376 243.493 347.384 241.604 349.414 239.742C354.56 235.013 359.803 230.382 364.799 225.5C373.192 217.29 381.609 209.089 389.26 200.162C393.71 194.973 398.153 189.784 402.428 184.445C408.857 176.436 414.62 167.915 419.659 158.966C419.993 158.343 420.263 157.684 420.438 157.322Z" fill="#C17C64"/>
<path d="M511 266.773C510.767 268.017 510.54 269.267 510.298 270.511C508.188 281.357 502.996 290.493 494.756 297.819C487.307 304.439 478.573 308.45 468.646 309.623C455.1 311.223 442.928 307.718 432.207 299.332C427.04 295.294 423.007 290.269 419.854 284.497C415.416 276.439 413.43 267.261 414.141 258.09C414.85 248.066 418.343 239.012 424.73 231.166C432.609 221.497 442.714 215.54 455.033 213.619C463.27 212.339 471.415 213.007 479.309 215.969C485.813 218.333 491.732 222.067 496.664 226.918C501.596 231.769 505.426 237.623 507.893 244.083C509.308 247.752 510.262 251.583 510.736 255.486C510.797 255.783 510.886 256.073 511 256.353V266.773ZM444.011 263.958C446.802 263.958 449.341 263.988 451.874 263.927C452.263 263.927 452.656 263.504 453.027 263.247C454.11 262.49 455.125 261.614 456.269 260.964C461.997 257.723 467.922 260.214 470.777 264.852C472.823 268.152 472.835 274.448 468.495 278.238C464.291 281.914 457.483 281.875 454.22 276.678C453.217 275.082 452.325 273.409 451.279 271.841C449.954 269.849 447.541 269.408 445.314 270.643C443.41 271.7 442.692 273.976 443.612 276.081C443.876 276.694 444.149 277.306 444.449 277.886C446.805 282.533 450.242 285.971 455.275 287.69C458.335 288.706 461.594 288.98 464.782 288.489C471.047 287.631 476.11 284.883 479.195 279.12C480.989 275.772 481.48 272.172 481.232 268.437C480.894 263.329 478.778 259.034 474.837 255.829C468.959 251.028 462.264 250.391 455.186 252.667C454.794 252.758 454.397 252.82 453.996 252.854C454.428 249.288 454.839 245.893 455.244 242.56C460.85 242.658 466.205 242.833 471.562 242.811C473.652 242.781 475.733 242.534 477.772 242.076C480.173 241.561 481.471 239.732 481.532 237.309C481.603 234.487 480.833 233.834 477.993 234.018C474.025 234.276 470.05 234.518 466.076 234.594C461.071 234.689 456.06 234.594 451.049 234.622C446.817 234.643 447.82 234.086 447.249 238.081C446.378 244.187 445.664 250.314 444.894 256.433C444.59 258.964 444.305 261.485 444.011 263.964V263.958Z" fill="#C17C64"/>
</svg>
