<svg width="230" height="512" viewBox="0 0 230 512" fill="none" xmlns="http://www.w3.org/2000/svg">
<path d="M225.067 203.199C198.138 84.4528 134.514 45.5164 127.678 30.5951C120.17 20.0125 112.084 0 112.084 0C112.004 0.41626 112.004 0.67242 111.924 1.08868V1.34484C111.924 1.68105 111.844 1.84115 111.844 2.17736V2.51357H111.764V3.00988V3.58624H111.684C111.684 3.74634 111.684 4.0025 111.604 4.08255V4.57886C111.604 4.73896 111.604 4.91507 111.524 4.99512V5.41138C111.524 5.66754 111.524 5.90769 111.444 6.0838V6.16385C111.444 6.50006 111.364 6.91632 111.284 7.25253V7.41263C111.204 7.49268 111.204 7.57273 111.204 7.66879V8.005H111.124V8.50131H111.044V8.83752H110.884V9.33383H110.804V9.75009H110.724V10.0863H110.644V10.4225H110.564V10.7587H110.483V11.0949H110.403V11.3511H110.323V11.6873H110.243V11.7674V12.0235H110.163C110.083 12.0235 110.083 12.1036 110.083 12.1036V12.2637L110.003 12.4238C110.003 12.5839 109.923 12.76 109.843 12.9201C109.763 13.0001 109.763 13.0001 109.763 13.0802V13.2403H109.683V13.4004H109.523V13.8166H109.363V14.0728H109.283V14.1528H109.203V14.3129H109.123V14.5691H109.043V14.7292H108.882V14.9854H108.802V15.1455H108.722V15.3056H108.642V15.5617H108.562V15.7218H108.482V15.8019H108.402V15.962H108.242V16.2181H108.162V16.2982H108.082V16.4583H108.002V16.7144H107.922V16.7945H107.842V16.9546H107.762V17.0346H107.682V17.2908H107.522V17.3709H107.442V17.531H107.362V17.611H107.281V17.7711H107.201V17.8512V17.9312C107.121 17.9312 107.121 18.0113 107.121 18.0113V18.0913H107.041C106.961 18.2514 106.881 18.3475 106.785 18.5076C106.785 18.5076 106.625 18.6677 106.625 18.7637C106.545 18.7637 106.545 18.8438 106.545 18.8438V18.9238H106.465V19.0039H106.385V19.0839V19.164H106.225V19.244H106.145V19.3241H106.065V19.4041V19.5642H105.985V19.6443H105.905V19.7243H105.825V19.8844H105.744V19.7243H105.584V19.8044H105.504V19.9645H105.424V20.1246H105.344V20.2046H105.264V20.2847H105.184V20.3647H105.104V20.5248H104.944V20.6049H104.864V20.765H104.784V20.845H104.704V20.9251H104.624V21.1812H104.544V21.2613H104.464V21.3413H104.384V21.4214H104.304V21.5014H104.143V21.6615H104.063V21.7416H103.983V21.8216H103.903V21.9817H103.823V22.0618H103.663V22.1418H103.583V22.2219H103.503V22.382H103.423V22.5421H103.343V22.6221H103.263V22.7022H103.103V22.7822H103.023V22.8623H102.943V23.0224H102.863V23.1024H102.783V23.2625H102.703V23.3426H102.623V23.4226H102.542V23.5027H102.462V23.5827H102.302V23.6628C102.222 23.6628 102.222 23.7428 102.222 23.7428L102.142 23.8229L102.062 23.9029V24.063H101.982V24.1431H101.902V24.2231H101.822V24.3032H101.742L101.582 24.4633V24.5433C101.422 24.6234 101.422 24.7034 101.246 24.8795C101.246 24.8795 101.086 25.0396 100.99 25.0396C100.733 25.1997 100.413 25.536 100.157 25.7921C99.9969 25.8722 99.8208 26.0483 99.6607 26.1283C99.3245 26.4645 98.9883 26.7047 98.6521 26.9608C98.1558 27.4572 97.6434 27.7934 97.0671 28.2897H96.987C95.8183 29.2983 94.4895 30.451 93.0646 31.7158H92.9845C89.3983 34.8858 85.1396 38.9684 80.3046 43.8034L79.8883 44.2196C50.8622 74.2384 5.0896 136.854 0.334624 238.005C-0.161686 246.346 -0.0816496 254.511 0.414661 262.436V262.596C2.75212 302.461 15.2559 336.482 30.9297 364.164C37.0936 375.178 43.8498 385.185 50.6861 394.182C74.2048 425.21 98.2198 443.637 104.304 448.136C113.733 469.894 112.885 507.421 112.885 507.421L126.638 512C126.638 512 123.804 475.721 127.726 458.126C128.975 452.699 131.809 448.04 135.155 444.038C137.492 442.453 144.169 437.618 152.174 430.285C152.59 429.869 152.846 429.532 153.182 429.116C185.618 398.841 246.248 324.299 225.483 202.895L225.067 203.199Z" fill="#C17C64"/>
</svg>
