<svg width="455" height="512" viewBox="0 0 455 512" fill="none" xmlns="http://www.w3.org/2000/svg">
<path d="M226.984 512C220.136 512 213.31 510.208 207.315 506.731L144.681 469.675C135.337 464.449 139.903 462.592 142.975 461.505C155.454 457.174 157.972 456.171 171.305 448.619C172.692 447.83 174.526 448.129 175.956 448.982L224.083 477.547C225.832 478.507 228.286 478.507 229.886 477.547L417.51 369.26C419.26 368.257 420.369 366.252 420.369 364.183V147.652C420.369 145.54 419.238 143.556 417.446 142.489L229.907 34.2876C228.179 33.285 225.875 33.285 224.126 34.2876L36.629 142.511C34.8156 143.556 33.6637 145.604 33.6637 147.652V364.183C33.6637 366.252 34.8156 368.215 36.629 369.196L88.0204 398.892C115.903 412.844 132.991 396.417 132.991 379.905V166.126C132.991 163.097 135.423 160.729 138.452 160.729H162.238C165.204 160.729 167.678 163.118 167.678 166.126V379.905C167.678 417.132 147.412 438.465 112.127 438.465C101.29 438.465 92.735 438.465 68.9059 426.71L19.6691 398.401C7.50925 391.383 0 378.241 0 364.183V147.652C0 133.593 7.53059 120.452 19.6691 113.455L207.294 5.03995C219.176 -1.67998 234.942 -1.67998 246.717 5.03995L434.321 113.455C446.481 120.473 454.033 133.593 454.033 147.652V364.183C454.033 378.241 446.481 391.34 434.321 398.401L246.717 506.731C240.744 510.208 233.939 512 226.984 512V512ZM378.471 298.52C378.471 257.987 351.079 247.192 293.416 239.576C235.155 231.875 229.224 227.886 229.224 214.254C229.224 202.99 234.238 187.95 277.394 187.95C315.943 187.95 330.151 196.249 335.996 222.232C336.508 224.686 338.748 226.478 341.266 226.478H365.607C367.122 226.478 368.551 225.816 369.575 224.75C370.599 223.598 371.153 222.126 371.004 220.568C367.228 175.811 337.49 154.948 277.394 154.948C223.891 154.948 191.977 177.518 191.977 215.384C191.977 256.451 223.72 267.8 275.069 272.877C336.508 278.893 341.266 287.874 341.266 299.949C341.266 320.919 324.434 329.858 284.904 329.858C235.262 329.858 224.339 317.399 220.67 292.696C220.243 290.05 217.982 288.109 215.272 288.109H191.017C188.009 288.109 185.598 290.498 185.598 293.506C185.598 325.122 202.793 362.796 284.904 362.796C344.38 362.818 378.471 339.415 378.471 298.52V298.52Z" fill="#C17C64"/>
</svg>
