<svg width="480" height="512" viewBox="0 0 480 512" fill="none" xmlns="http://www.w3.org/2000/svg">
<path d="M203.563 104.021L118.012 60.8363L24.1237 107.695L111.987 151.819L203.563 104.021ZM242.775 123.812L332.471 169.088L239.411 215.821L151.411 171.622L242.775 123.812ZM362.569 61.4912L454.714 107.695L372.303 149.086L282.423 103.748L362.569 61.4912ZM322.91 41.5893L239.957 0L157.892 40.9451L243.371 84.0555L322.91 41.5893ZM258.054 398.801V512L358.549 461.852L358.436 348.604L258.054 398.801ZM358.4 309.079L358.289 197.02L258.054 246.846V358.944L358.4 309.079ZM479.046 288.077V401.719L393.333 444.497L393.271 331.371L479.046 288.077ZM479.046 248.341V136.99L393.173 179.678L393.246 291.962L479.046 248.341ZM222.575 246.848L154.886 212.813V359.906C154.886 359.906 72.1045 183.77 64.4352 167.949C63.4475 165.907 59.3771 163.667 58.3381 163.123C43.4944 155.332 0 133.301 0 133.301V393.173L60.1685 425.335V289.498C60.1685 289.498 142.071 446.884 142.899 448.602C143.729 450.323 151.955 466.91 160.738 472.738C172.439 480.482 222.588 510.639 222.588 510.639L222.575 246.848Z" fill="#C17C64"/>
</svg>
