<svg width="512" height="450" viewBox="0 0 512 450" fill="none" xmlns="http://www.w3.org/2000/svg">
<path d="M168.981 211.645V219.667H169.173C170.785 216.414 173.532 213.864 176.896 212.499C180.416 211.005 184.277 210.259 188.48 210.259C193.152 210.259 197.248 211.091 200.725 212.776C204.203 214.461 207.083 216.723 209.387 219.581C211.73 222.524 213.496 225.882 214.592 229.48C215.765 233.213 216.341 237.181 216.341 241.384C216.341 245.587 215.765 249.555 214.635 253.288C213.582 256.859 211.835 260.186 209.493 263.08C207.146 265.903 204.183 268.151 200.832 269.651C197.016 271.325 192.881 272.147 188.715 272.061C185.159 272.015 181.638 271.358 178.304 270.12C176.482 269.423 174.766 268.475 173.205 267.304C171.586 266.11 170.216 264.609 169.173 262.888H168.981V293.437H158.933V211.624H168.981V211.645ZM204.629 232.68C203.937 230.146 202.788 227.76 201.237 225.64C199.698 223.566 197.697 221.879 195.392 220.712C192.791 219.441 189.923 218.812 187.029 218.877C183.68 218.877 180.843 219.517 178.496 220.819C176.221 222.052 174.264 223.798 172.779 225.917C171.269 228.078 170.177 230.502 169.557 233.064C168.203 238.495 168.225 244.177 169.621 249.597C170.26 252.172 171.39 254.598 172.949 256.744C174.499 258.836 176.515 260.538 178.837 261.715C181.248 262.973 184.171 263.592 187.605 263.592C191.04 263.592 193.899 262.952 196.181 261.651C198.417 260.409 200.32 258.645 201.728 256.509C203.136 254.376 204.139 251.944 204.757 249.192C205.376 246.44 205.696 243.624 205.696 240.723C205.724 238.005 205.365 235.297 204.629 232.68V232.68ZM267.584 267.048C263.04 270.397 257.344 272.083 250.453 272.083C246.14 272.18 241.851 271.403 237.845 269.8C234.41 268.357 231.341 266.163 228.864 263.379C226.377 260.518 224.516 257.168 223.403 253.544C222.149 249.498 221.46 245.298 221.355 241.064C221.355 236.563 222.059 232.445 223.467 228.712C224.875 224.979 226.859 221.736 229.397 218.984C231.931 216.241 235.013 214.06 238.443 212.584C241.92 211.048 245.739 210.301 249.899 210.301C255.296 210.301 259.776 211.389 263.339 213.565C266.901 215.741 269.76 218.515 271.915 221.885C274.069 225.256 275.563 228.925 276.373 232.893C277.205 236.861 277.525 240.659 277.376 244.243H232C231.915 246.824 232.235 249.299 232.939 251.603C233.616 253.876 234.773 255.979 236.331 257.768C237.976 259.626 240.017 261.091 242.304 262.056C244.715 263.123 247.573 263.656 250.859 263.656C254.528 263.807 258.153 262.807 261.227 260.797C264.04 258.674 265.946 255.564 266.56 252.093H276.416C275.051 258.707 272.128 263.699 267.584 267.048V267.048ZM265.152 229.075C263.819 225.997 261.599 223.385 258.776 221.573C255.953 219.761 252.655 218.83 249.301 218.899C246.918 218.865 244.552 219.315 242.347 220.221C240.347 221.045 238.539 222.272 237.035 223.827C235.55 225.366 234.363 227.167 233.536 229.139C232.672 231.186 232.16 233.364 232.021 235.581H266.752C266.591 233.337 266.05 231.137 265.152 229.075V229.075ZM293.461 211.645V221.032H293.653C297.813 213.843 304.405 210.259 313.451 210.259C317.461 210.259 320.789 210.792 323.456 211.859C326.123 212.925 328.277 214.419 329.941 216.339C331.584 218.259 332.757 220.52 333.419 223.165C334.08 225.811 334.421 228.733 334.421 231.933V270.909H324.373V230.824C324.453 229.225 324.203 227.627 323.637 226.13C323.072 224.632 322.204 223.267 321.088 222.12C319.868 221.013 318.44 220.16 316.887 219.611C315.334 219.062 313.687 218.827 312.043 218.92C309.332 218.862 306.637 219.333 304.107 220.307C301.966 221.157 300.052 222.493 298.517 224.211C297.011 225.925 295.872 227.928 295.168 230.099C294.405 232.484 294.031 234.976 294.059 237.48V270.931H284.011V211.688H293.461V211.645ZM403.84 270.248C399.491 272.08 394.821 273.03 390.101 273.043C382.805 273.043 376.256 271.805 370.432 269.331C364.84 267.015 359.812 263.523 355.691 259.091C351.632 254.644 348.505 249.428 346.496 243.752C344.363 237.885 343.296 231.549 343.296 224.765C343.296 217.811 344.363 211.347 346.496 205.373C348.629 199.421 351.68 194.216 355.669 189.779C359.659 185.341 364.565 181.864 370.389 179.325C376.616 176.728 383.312 175.442 390.059 175.549C394.944 175.549 399.68 176.275 404.245 177.704C408.832 179.155 412.949 181.267 416.64 184.04C420.486 186.926 423.679 190.592 426.01 194.798C428.341 199.003 429.757 203.654 430.165 208.445H410.176C408.939 203.24 406.528 199.336 402.965 196.712C399.192 194.045 394.656 192.675 390.037 192.808C385.323 192.808 381.333 193.704 378.027 195.475C374.72 197.245 372.075 199.656 370.027 202.664C367.929 205.777 366.418 209.248 365.568 212.904C363.72 220.559 363.72 228.545 365.568 236.2C366.507 239.891 368 243.219 370.048 246.184C372.096 249.149 374.763 251.517 378.048 253.288C381.333 255.08 385.344 255.955 390.059 255.955C396.992 255.955 402.368 254.248 406.144 250.813C409.92 247.4 412.139 242.429 412.757 235.923H391.701V220.627H431.637V270.931H418.347L416.213 260.371C413.023 264.688 408.757 268.093 403.84 270.248V270.248ZM465.6 177.896V253.629H512V270.888H444.715V177.896H465.6ZM81.088 267.069C82.2187 267.709 83.3707 268.328 84.5867 268.883C90.2827 271.528 96.9173 272.851 104.491 272.851C112.064 272.851 118.699 271.528 124.395 268.883C130.091 266.237 134.869 262.653 138.688 258.152C142.507 253.651 145.387 248.467 147.307 242.621C149.227 236.776 150.187 230.675 150.187 224.36C150.187 218.024 149.227 211.944 147.307 206.099C145.481 200.406 142.552 195.129 138.688 190.568C134.756 185.983 129.881 182.3 124.395 179.773C118.14 176.973 111.342 175.596 104.491 175.741C96.9173 175.741 90.2827 177.085 84.5867 179.773L83.9467 180.093C114.347 154.515 170.005 137.405 233.643 137.405C287.232 137.405 335.296 148.413 367.253 167.528C332.373 135.507 269.845 113.021 198.336 113C88.7893 112.979 0 163.027 0 224.808C0 286.568 88.768 336.659 198.272 336.68C269.483 336.701 331.861 314.259 366.827 282.472C334.869 301.459 287.019 312.275 233.621 312.275C167.957 312.253 110.763 294.013 81.088 267.069V267.069ZM89.5147 189.459C93.696 187.24 98.688 186.131 104.491 186.131C110.293 186.131 115.285 187.24 119.467 189.459C123.648 191.677 127.083 194.6 129.771 198.248C132.437 201.896 134.4 205.992 135.659 210.557C138.177 219.63 138.177 229.218 135.659 238.291C134.4 242.856 132.459 246.952 129.771 250.579C127.058 254.262 123.532 257.27 119.467 259.368C115.264 261.587 110.293 262.675 104.491 262.675C99.3036 262.811 94.162 261.676 89.5147 259.368C85.4531 257.265 81.9281 254.258 79.2107 250.579C76.517 246.875 74.5217 242.711 73.3227 238.291C70.804 229.218 70.804 219.63 73.3227 210.557C74.5079 206.126 76.5042 201.952 79.2107 198.248C81.8773 194.6 85.312 191.677 89.5147 189.459V189.459Z" fill="#C17C64"/>
</svg>
