<svg width="512" height="478" viewBox="0 0 512 478" fill="none" xmlns="http://www.w3.org/2000/svg">
<path d="M148.646 63.7022C191.857 -17.7078 307.613 -21.9797 356.506 56.0312C394.394 116.483 370.302 191.516 314.683 223.819L278.561 161.255C300.688 148.403 310.273 118.553 295.2 94.5039C275.749 63.469 229.698 65.1684 212.507 97.5556C199.786 121.521 209.868 149.106 230.816 161.285L194.668 223.896C142.012 193.281 116.67 123.944 148.646 63.7022V63.7022ZM167.967 357.109C167.923 381.387 149.032 404.007 121.874 405.009C85.2321 406.361 60.7861 367.357 77.9768 334.97C91.2686 309.928 121.807 303.25 143.97 315.847L180.186 253.119C124.462 221.319 47.5615 238.104 14.1155 301.116C-29.0957 382.526 32.3528 480.569 124.457 477.17C192.595 474.656 240.032 418.005 240.319 357.109H167.967ZM451.714 253.395L415.593 315.959C437.796 328.776 447.435 358.684 432.338 382.772C412.886 413.807 366.835 412.108 349.645 379.72C336.903 355.714 347.04 328.077 368.06 315.93L331.912 253.319C279.184 283.902 253.787 353.292 285.784 413.574C328.995 494.984 444.751 499.256 493.644 421.245C531.556 360.755 507.41 285.664 451.714 253.395V253.395Z" fill="#C17C64"/>
</svg>
