<svg width="512" height="512" viewBox="0 0 512 512" fill="none" xmlns="http://www.w3.org/2000/svg">
<g clip-path="url(#clip0_10_31)">
<path d="M155.953 289.966C152.325 285.282 147.742 281.493 142.193 278.609C136.646 275.731 130.144 274.292 122.681 274.292C115.642 274.292 109.344 275.785 103.803 278.773C98.2555 281.761 93.507 285.604 89.5678 290.288C85.6151 294.983 82.6326 300.316 80.6067 306.289C78.5755 312.262 77.5706 318.238 77.5706 324.206C77.5706 330.179 78.5755 336.099 80.6067 341.96C82.6326 347.831 85.6151 353.107 89.5678 357.802C93.5097 362.492 98.2555 366.281 103.803 369.154C109.344 372.037 115.642 373.471 122.681 373.471C130.144 373.471 136.646 371.984 142.193 368.996C147.74 366.008 152.325 362.17 155.953 357.475C159.576 352.786 162.296 347.453 164.113 341.48C165.924 335.507 166.83 329.536 166.83 323.563C166.83 317.59 165.924 311.67 164.113 305.804C162.296 299.94 159.576 294.661 155.953 289.966Z" fill="#C17C64"/>
<path d="M0 0V512H512V0H0ZM200.584 355.396C197.068 365.314 192.052 373.951 185.548 381.309C179.044 388.668 171.155 394.542 161.875 398.905C152.595 403.276 142.085 405.462 130.362 405.462C119.479 405.462 109.51 403.222 100.445 398.747C91.3739 394.266 84.3932 388.191 79.4893 380.506H78.8515V477.768H40.4588V247.419H77.249V268.852H78.211C80.127 265.87 82.6326 262.828 85.7277 259.736C88.8228 256.643 92.6093 253.872 97.0898 251.415C101.565 248.971 106.632 246.94 112.284 245.337C117.93 243.74 124.281 242.936 131.321 242.936C142.198 242.936 152.22 245.018 161.396 249.175C170.566 253.342 178.458 259.047 185.074 266.296C191.679 273.55 196.798 282.082 200.429 291.89C204.052 301.704 205.866 312.262 205.866 323.565C205.866 334.869 204.105 345.475 200.584 355.396ZM365.576 360.514C361.2 370.432 355.28 378.807 347.817 385.627C340.349 392.457 331.602 397.686 321.58 401.309C311.558 404.932 300.89 406.746 289.589 406.746C270.601 406.746 254.6 402.314 241.595 393.468C232.645 387.382 225.401 379.712 219.785 370.547L247.565 344.513L247.994 344.355C251.191 353.316 256.521 360.512 263.99 365.952C271.453 371.389 280.309 374.112 290.546 374.112C296.302 374.112 301.742 373.155 306.86 371.228C311.984 369.312 316.459 366.544 320.302 362.91C324.139 359.287 327.178 354.75 329.418 349.318C331.659 343.881 332.779 337.747 332.779 330.921C332.779 322.175 331.281 314.92 328.298 309.164C325.31 303.408 321.422 298.764 316.622 295.248C311.823 291.732 306.431 289.275 300.466 287.889C294.493 286.501 288.413 285.813 282.231 285.813C277.959 285.813 273.433 286.132 268.634 286.769C263.834 287.412 259.139 288.318 254.554 289.492C249.964 290.666 245.489 292 241.118 293.485C236.742 294.983 232.848 296.583 229.442 298.284L233.28 174.476H362.21V209.023H269.748L267.514 257.978C271.137 256.911 275.454 256.166 280.467 255.732C285.481 255.314 290.013 255.094 294.064 255.094C305.156 255.094 315.446 256.697 324.938 259.894C334.427 263.091 342.696 267.735 349.731 273.81C356.776 279.893 362.261 287.362 366.206 296.205C370.153 305.062 372.125 315.242 372.125 326.76C372.128 339.347 369.941 350.596 365.576 360.514ZM465.766 233.345L451.716 243.534L437.115 224.21L422.88 243.038L409.194 232.614L423.051 213.641L400.563 205.529L405.871 189.196L428.432 196.469V173.133H446.531V196.503L468.926 189.745L474.229 206.065L451.899 213.683L465.766 233.345Z" fill="#C17C64"/>
</g>
<defs>
<clipPath id="clip0_10_31">
<rect width="512" height="512" fill="white"/>
</clipPath>
</defs>
</svg>
