<svg width="512" height="512" viewBox="0 0 512 512" fill="none" xmlns="http://www.w3.org/2000/svg">
<path fill-rule="evenodd" clip-rule="evenodd" d="M512 512H0V0H512V512ZM406.41 217.014V177.304C399.871 174.392 362.419 163.679 332.832 174.969C290.212 191.231 291.743 240.221 307.916 259.448C328.871 284.36 380.998 293.648 372.468 318.1C368.051 330.762 347.43 332.966 329.25 328.715C312.319 324.757 297.599 314.729 297.599 314.729V356.774C297.599 356.774 312.151 364.886 330.008 366.816C352.901 369.289 381.597 364.619 395.973 351.841C421.562 329.094 425.493 278.704 376.998 255.305C336.643 235.834 337.307 230.278 337.59 220.291C337.97 206.915 366.054 198.682 406.41 217.014V217.014ZM188.789 105.575C222.366 106.743 271.711 122.218 271.711 188.205C271.711 254.192 211.337 275.844 156.248 271.127V364.56H115.21V106.451C115.21 106.451 155.211 104.407 188.789 105.575V105.575ZM199.446 230.25C217.142 223.793 228.644 209.912 228.644 188.351C228.644 165.489 216.939 150.008 199.037 145.635C179.651 140.898 156.248 143.69 156.248 143.69V233.734C156.248 233.734 188.643 234.192 199.446 230.25V230.25Z" fill="#C17C64"/>
</svg>
