<svg width="396" height="512" viewBox="0 0 396 512" fill="none" xmlns="http://www.w3.org/2000/svg">
<path d="M196.017 334.021C185.185 334.202 174.352 333.696 163.584 332.505V441.836C185.619 443.533 207.531 446.565 229.199 450.914V512H0V450.954C21.6694 446.608 43.5806 443.57 65.6148 441.856V73.1569C43.5891 71.4442 21.6852 68.4193 0.0196909 64.0985V3.05231H58.8209C82.944 3.01292 149.287 0 202.082 0C326.498 0 395.067 58.0529 395.067 157.538C395.087 256.354 319.646 334.021 196.017 334.021V334.021ZM197.553 79.9114C185.482 79.9114 174.927 79.9114 163.623 80.6597V250.309C173.104 251.783 182.682 252.54 192.276 252.574C251.845 251.825 293.297 218.644 293.297 163.584C293.297 112.246 264.645 79.9114 197.553 79.9114V79.9114Z" fill="#C17C64"/>
</svg>
