<svg width="512" height="376" viewBox="0 0 512 376" fill="none" xmlns="http://www.w3.org/2000/svg">
<path fill-rule="evenodd" clip-rule="evenodd" d="M70.3723 0H512V304.529L440.641 375.688H0V70.2504L70.3723 0ZM135.614 79.0497C152.381 67.9564 173.116 65.1525 192.831 65.3299C211.605 65.5626 231.309 68.854 246.868 80.0582C258.172 88.0042 265.52 100.272 270.418 112.961C278.342 133.796 280.669 156.293 280.935 178.435C280.968 200.733 279.96 223.518 272.579 244.763C267.636 259.214 258.228 272.047 245.815 280.957C254.748 295.431 263.857 309.793 272.79 324.267C261.563 329.442 250.37 334.651 239.133 339.804C229.569 324.023 220.049 308.208 210.452 292.45C197.475 294.577 184.198 294.411 171.154 292.97C155.528 291.097 139.603 286.332 127.546 275.815C118.281 267.791 112.463 256.565 108.484 245.15C101.968 225.845 100.217 205.299 99.9176 185.04C99.7624 163.142 101.159 140.9 107.764 119.888C112.873 104.084 121.328 88.3145 135.614 79.0497V79.0497ZM325.94 230.588V155.229H301.382V124.963H325.94V78.3404H360.45V124.963H406.275L405.455 155.229H360.45V231.63C360.105 265.48 373.376 259.719 404.635 258.061L406.275 285.867C355.851 293.326 324.336 296.588 325.94 230.588V230.588ZM139.758 217.29C135.348 190.515 134.284 162.809 140.312 136.19C145.554 79.5278 246.732 76.3073 241.626 160.748C242.89 179.61 242.712 198.649 240.108 217.4C240.041 278.407 139.691 278.296 139.758 217.29Z" fill="#C17C64"/>
</svg>
