<svg width="512" height="456" viewBox="0 0 512 456" fill="none" xmlns="http://www.w3.org/2000/svg">
<path d="M256 182.118C230.832 182.118 210.336 202.614 210.336 227.782C210.336 252.95 230.832 273.446 256 273.446C281.168 273.446 301.664 252.95 301.664 227.782C301.664 202.614 281.168 182.118 256 182.118ZM128.16 318.534L118.08 316.038C43.072 297.03 0 264.87 0 227.702C0 190.534 43.088 158.374 118.08 139.366L128.16 136.87L130.992 146.87C138.576 173.03 148.32 198.534 160.08 223.206L162.24 227.702L160.08 232.278C148.336 256.854 138.576 282.358 130.992 308.614L128.16 318.534ZM113.424 162.694C56.416 178.694 21.424 203.27 21.424 227.702C21.424 252.134 56.432 276.614 113.424 292.71C120.432 270.454 128.848 248.79 138.672 227.702C128.832 206.614 120.416 184.95 113.424 162.694V162.694ZM383.84 318.534L381.008 308.534C373.424 282.374 363.68 256.87 351.92 232.278L349.76 227.702L351.92 223.126C363.664 198.55 373.424 173.046 381.008 146.79L383.84 136.87L393.92 139.366C468.928 158.374 512 190.534 512 227.702C512 264.87 468.912 297.03 393.92 316.038L383.84 318.534ZM373.328 227.702C383.584 249.862 392.08 271.622 398.576 292.71C455.664 276.63 490.576 252.134 490.576 227.702C490.576 203.27 455.568 178.79 398.576 162.694C391.568 184.854 383.152 206.614 373.328 227.702ZM113.248 162.614L110.416 152.614C89.328 78.2778 95.744 24.9498 128 6.3578C159.664 -11.8982 210.416 9.6858 263.664 64.3578L270.912 71.7818L263.664 79.2058C244.752 98.8698 227.504 120.038 212 142.534L209.088 146.614L204.08 147.03C176.832 149.19 149.824 153.526 123.328 160.038L113.248 162.614ZM153.744 21.2058C148 21.2058 142.912 22.3738 138.656 24.8698C117.488 37.1258 113.744 79.6218 128.32 136.95C151.072 131.862 174.064 128.278 197.328 126.198C210.656 107.19 225.328 89.0298 241.072 71.9418C207.824 39.5258 176.32 21.1898 153.744 21.1898V21.2058ZM358.336 455.526C358.256 455.526 358.256 455.526 358.336 455.526C327.92 455.526 288.832 432.694 248.336 391.03L241.088 383.606L248.336 376.182C267.248 356.518 284.496 335.35 300 312.854L302.832 308.774L307.84 308.278C335.088 306.198 362.096 301.862 388.672 295.27L398.752 292.774L401.584 302.774C422.672 377.11 416.256 430.358 384 448.934C376.16 453.43 367.328 455.686 358.336 455.51V455.526ZM270.912 383.446C304.16 415.862 335.664 434.198 358.24 434.198H358.32C363.984 434.198 369.072 432.95 373.328 430.534C394.496 418.278 398.336 375.782 383.664 318.454C360.912 323.542 337.824 327.126 314.656 329.126C301.328 348.214 286.656 366.294 270.912 383.462V383.446ZM398.752 162.614L388.672 160.038C362.096 153.542 335.088 149.206 307.84 147.03L302.832 146.614L300 142.534C284.496 120.038 267.248 98.8698 248.336 79.2058L241.088 71.7818L248.336 64.3578C301.584 9.6858 352.336 -11.8982 384 6.3578C416.256 24.9338 422.672 78.2778 401.584 152.614L398.752 162.614ZM314.672 126.198C339.008 128.454 362.176 132.038 383.68 136.95C398.352 79.6218 394.512 37.1098 373.344 24.8698C352.256 12.7098 312.592 31.3658 270.928 71.9578C286.672 89.1258 301.264 107.206 314.672 126.214V126.198ZM153.744 455.526C144.736 455.686 135.824 453.446 128 448.95C95.744 430.374 89.328 377.11 110.416 302.79L113.248 292.79L123.328 295.286C148 301.542 175.168 305.862 204.08 308.294L209.088 308.79L211.92 312.87C227.424 335.366 244.672 356.534 263.584 376.198L270.832 383.622L263.584 391.046C223.168 432.71 184.08 455.542 153.744 455.542V455.526ZM128.336 318.454C113.664 375.782 117.504 418.294 138.672 430.534C159.76 442.534 199.344 424.038 241.088 383.446C225.344 366.278 210.672 348.198 197.344 329.11C174.096 327.11 151.088 323.526 128.336 318.438V318.454ZM256 331.862C238.416 331.862 220.416 331.11 202.336 329.606L197.328 329.19L194.416 325.03C184.256 310.358 174.576 295.286 165.664 279.782C156.656 264.278 148.416 248.454 140.752 232.278L138.592 227.702L140.752 223.126C148.416 206.966 156.672 191.126 165.664 175.622C174.496 160.374 184.16 145.126 194.416 130.374L197.328 126.214L202.336 125.798C238.08 122.79 274 122.79 309.664 125.798L314.672 126.214L317.584 130.374C338 159.702 356 190.79 371.248 223.126L373.408 227.702L371.248 232.278C356 264.614 338.08 295.702 317.584 325.03L314.672 329.19L309.664 329.606C291.664 331.11 273.584 331.862 256 331.862V331.862ZM209.168 308.694C240.672 311.11 271.328 311.11 302.912 308.694C320.496 282.95 336.16 255.862 349.744 227.686C336.24 199.526 320.576 172.438 302.832 146.678C271.664 144.262 240.336 144.262 209.168 146.678C191.424 172.422 175.744 199.51 162.256 227.686C175.84 255.846 191.504 282.934 209.168 308.694Z" fill="#C17C64"/>
</svg>
