<svg id="Layer_1" data-name="Layer 1" xmlns="http://www.w3.org/2000/svg" viewBox="0 0 512 512"><defs><style>.cls-1{fill:#c17c64;}</style></defs><path class="cls-1" d="M213.06,115.9A89.77,89.77,0,0,1,278,88c33.8,0,63.28,18.85,79,46.83a109.08,109.08,0,0,1,44.64-9.49c61,0,110.38,49.85,110.38,111.34S462.58,348.05,401.62,348.05a109.5,109.5,0,0,1-21.74-2.17,80.67,80.67,0,0,1-105.73,33.21A92.06,92.06,0,0,1,103,374.93a84.71,84.71,0,0,1-17.56,1.83C38.26,376.76,0,338.1,0,290.41a86.48,86.48,0,0,1,42.73-74.79A99.43,99.43,0,0,1,213.06,115.9"/></svg>