<svg width="512" height="512" viewBox="0 0 512 512" fill="none" xmlns="http://www.w3.org/2000/svg">
<path d="M256 0C397.376 0 512 114.624 512 256C512 397.376 397.376 512 256 512C114.624 512 0 397.376 0 256C0 114.624 114.624 0 256 0ZM205.12 341.291C208.853 355.051 208.448 367.915 204.608 379.52L203.221 383.36C202.709 384.661 202.112 385.92 201.557 387.115C198.571 393.301 194.603 399.061 189.717 404.395C174.827 420.587 154.048 426.731 145.131 421.568C135.531 415.979 140.309 393.088 157.589 374.848C176.171 355.264 202.816 342.656 202.816 342.656V342.592L205.12 341.291ZM416.555 109.589C404.992 64.0853 329.579 49.1307 258.219 74.496C215.787 89.5787 169.813 113.28 136.768 144.192C97.4507 180.907 91.2 212.907 93.7813 226.283C102.891 273.451 167.531 304.299 194.112 327.189V327.317C186.283 331.157 128.917 359.936 115.477 389.717C101.077 421.077 117.717 443.499 128.597 446.357C162.197 455.659 196.757 438.677 215.317 411.179C233.237 384.277 231.659 349.717 223.936 332.757C234.517 329.877 246.976 328.597 262.976 330.539C307.797 335.659 316.757 363.819 314.816 375.339C312.896 386.837 303.659 393.557 300.437 395.477C297.237 397.419 296.277 398.037 296.576 399.339C296.896 401.259 298.517 401.259 301.056 400.939C304.576 400.299 324.437 391.339 325.397 369.557C326.357 342.037 300.096 311.339 253.397 311.957C234.197 312.299 222.016 313.899 213.397 317.419C212.813 316.525 212.051 315.763 211.157 315.179C182.357 284.139 128.917 262.379 131.157 221.099C131.797 206.059 137.237 166.4 233.557 118.4C312.597 79.0187 375.659 89.92 386.539 113.92C402.176 148.139 352.917 211.84 270.677 221.099C239.317 224.619 222.997 212.48 218.816 207.979C214.357 203.179 213.717 202.859 212.117 203.84C209.557 205.12 211.157 209.28 212.117 211.84C214.677 218.24 224.597 229.44 241.899 235.2C256.917 240 293.739 242.859 337.899 225.6C387.477 206.421 426.197 152.96 414.997 108.16L416.555 109.589Z" fill="#C17C64"/>
</svg>
