<svg width="512" height="512" viewBox="0 0 512 512" fill="none" xmlns="http://www.w3.org/2000/svg">
<path d="M256 102C187.648 102 145.152 136.048 128 204.4C153.6 170.352 183.552 157.552 217.6 166C237.056 170.864 251.136 184.944 266.496 200.56C291.584 226.16 320 255.6 384 255.6C452.352 255.6 494.848 221.552 512 153.2C486.4 187.248 456.448 200.048 422.4 191.6C402.944 186.736 389.12 172.656 373.504 157.04C348.416 131.44 320 102 256 102ZM128 255.6C59.648 255.6 17.152 289.648 0 358C25.6 323.952 55.552 311.152 89.6 319.6C109.056 324.464 122.88 338.544 138.496 354.16C163.584 379.76 192 409.2 256 409.2C324.352 409.2 366.848 375.152 384 306.8C358.4 340.848 328.448 353.648 294.4 345.2C274.944 340.336 261.12 326.256 245.504 310.64C220.416 285.04 192 255.6 128 255.6Z" fill="#C17C64"/>
</svg>
