<svg width="512" height="461" viewBox="0 0 512 461" fill="none" xmlns="http://www.w3.org/2000/svg">
<path d="M262.471 460.428C254.795 459.362 240.082 456.063 229.226 453.004C180.232 439.204 140.062 415.061 114.69 384.176C110.85 379.504 105.9 372.723 106.147 372.48C106.147 372.48 108.494 372.518 111.178 372.907C116.892 373.461 124.385 373.333 127.687 372.309C134.912 370.389 139.392 365.759 140.54 359.026C140.967 357.276 140.967 329.95 140.967 263.815V171.075L139.9 168.045C137.34 160.842 133.218 157.77 124.816 156.84C120.327 156.328 114.182 158.76 106.245 164.115C77.4044 183.616 40.0421 231.309 3.11495 295.771C1.4508 298.673 0.0426706 301.007 0 300.956C0 300.956 -3.97401e-07 296.987 0.426705 292.264C2.77359 234.104 27.8383 173.2 71.9426 118.53C82.6828 105.213 98.8805 87.9995 111.567 76.4102C152.577 38.9412 197.885 13.0316 243.474 0.981423L247.144 0L245.949 1.0241C245.309 1.62148 242.279 4.22439 239.241 6.8657C233.033 12.2635 222.309 22.816 217.291 28.4741C204.093 43.3576 196.28 56.5983 194.676 66.7965C193.78 72.5357 194.676 85.2601 196.81 92.7061C199.156 101.543 203.505 107.257 209.564 109.488C211.271 110.129 212.679 110.299 215.461 110.299C219.643 110.295 222.676 109.574 226.884 107.654L229.657 106.374V223.577V340.776L230.895 343.336C234.436 350.56 242.791 353.752 259.471 354.277C267.758 354.703 270.45 354.277 276.783 352.229C287.015 348.986 299.577 342.589 313.71 333.424L317.764 330.778L317.768 235.094C317.772 132.313 317.768 137.31 315.848 131.285C312.263 120.463 300.913 105.23 287.246 92.8811L282.782 88.87H285.001C288.287 88.87 296.522 89.8514 302.202 91.2596C313.006 93.9905 324.113 98.8421 332.6 104.569L335.374 106.446L336.355 104.782C337.934 102.051 342.192 96.922 346.336 92.689C368.635 69.9158 404.295 51.1919 450.61 37.9341C454.706 36.782 458.209 35.8006 458.393 35.8006C458.393 35.8006 456.43 38.8729 453.61 42.6151C437.105 64.5905 421.696 88.4348 413.836 104.155C409.825 112.155 407.956 116.926 407.09 121.244C406.365 124.914 405.767 326.089 406.45 328.726C407.73 333.454 413.098 336.167 422.217 336.705C426.877 337.132 431.365 336.236 438.056 334.017C461.495 326.315 484.789 311.273 505.412 290.518L512 283.892L511.531 285.726C510.08 291.252 504.324 301.737 495.401 315.186C467.418 357.375 427.683 400.498 390.167 429.403C383.826 434.288 371.618 442.869 371.008 442.869C370.581 442.869 358.693 430.99 344.164 416.469C321.6 393.922 317.674 390.154 317.281 390.67C316.855 391.097 305.095 406.945 290.77 426.096C276.441 445.246 264.519 460.893 264.272 460.859C263.845 460.829 263.29 460.859 262.693 460.433L262.471 460.428Z" fill="#C17C64"/>
</svg>
