<svg width="512" height="512" viewBox="0 0 512 512" fill="none" xmlns="http://www.w3.org/2000/svg">
<path d="M0 0V512H512V0H0ZM217.538 367.527L170.201 269.97L124.528 367.294H80.0134L145.521 242.496L82.1839 116.3L128.386 116.3L173.228 212.227L217.694 116.067H261.063L197.675 238.538L264.807 367.527H217.538ZM420.497 357.282C400.939 366.596 380.449 370.787 360.891 370.787C310.367 371.02 274.278 339.82 274.278 276.489C275.922 211.613 319.15 175.412 379.751 180.329V116.3H421.195V331.904C421.281 357.617 424.119 355.144 420.497 357.282ZM379.751 216.884V332.136C338.844 342.751 316.226 317.856 316.42 274.627C316.575 230.292 345.703 207.283 379.751 216.884V216.884Z" fill="#C17C64"/>
</svg>
