<svg id="Layer_1" data-name="Layer 1" xmlns="http://www.w3.org/2000/svg" viewBox="0 0 512 512"><defs><style>.cls-1{fill:#c17c64;}</style></defs><path class="cls-1" d="M256,6.34C114.56,6.34,0,121,0,262.34,0,375.47,73.34,471.41,175,505.22c12.8,2.41,17.49-5.51,17.49-12.31,0-6.08-.21-22.19-.32-43.52C121,464.83,106,415,106,415,94.34,385.5,77.5,377.6,77.5,377.6c-23.19-15.87,1.8-15.55,1.8-15.55,25.7,1.79,39.21,26.37,39.21,26.37,22.82,39.15,59.92,27.84,74.56,21.29,2.3-16.56,8.89-27.84,16.21-34.24C152.43,369.07,92.67,347.05,92.67,249c0-27.94,9.92-50.77,26.35-68.69-2.88-6.46-11.52-32.49,2.24-67.76,0,0,21.44-6.86,70.4,26.24a241.36,241.36,0,0,1,128,0c48.64-33.1,70.08-26.24,70.08-26.24,13.76,35.27,5.12,61.3,2.56,67.76C408.62,198.19,418.54,221,418.54,249c0,98.35-59.84,120-116.8,126.3,9,7.68,17.28,23.38,17.28,47.36,0,34.26-.32,61.78-.32,70.1,0,6.72,4.48,14.72,17.6,12.16C438.72,471.3,512,375.3,512,262.34c0-141.38-114.62-256-256-256"/></svg>