<svg id="Layer_1" data-name="Layer 1" xmlns="http://www.w3.org/2000/svg" viewBox="0 0 512 512"><defs><style>.cls-1{fill:#c17c64;}</style></defs><path class="cls-1" d="M436.2,436.31H360.38V317.5c0-28.33-.57-64.79-39.51-64.79-39.53,0-45.56,30.83-45.56,62.7v120.9H199.49V192h72.83v33.3h1c10.18-19.2,34.92-39.47,71.89-39.47,76.83,0,91,50.56,91,116.38v134.1ZM113.86,158.57a44,44,0,1,1,44-44A44,44,0,0,1,113.86,158.57Zm38,277.74h-76V192h76ZM474.13,0H37.78C16.9,0,0,16.51,0,36.89V475.11C0,495.51,16.9,512,37.78,512H474.07c20.86,0,37.93-16.49,37.93-36.89V36.89C512,16.51,494.93,0,474.07,0Z"/></svg>