<svg width="1722" height="1512" viewBox="0 0 1722 1512" fill="none" xmlns="http://www.w3.org/2000/svg">
<path d="M96.6801 858.16C90.2001 857.58 84.1201 855.56 78.0401 853.54C71.4301 851.35 65.1401 848.38 59.1001 844.96C53.6101 841.84 48.4701 838.19 43.5001 834.22C38.9601 830.6 34.8701 826.58 31.0001 822.37C26.0601 817 21.5301 811.3 17.8601 804.87C15.6201 800.96 13.4301 797.02 11.5501 792.96C8.77006 786.93 6.20007 780.79 4.96007 774.19C4.44007 771.44 2.95005 768.9 3.01005 766.01C3.08005 763.1 1.32006 760.4 2.00006 757.42C-0.0799397 750.47 1.41006 743.36 1.06006 736.33C0.980058 734.66 1.78007 732.96 1.96007 731.24C2.14007 729.5 1.93006 727.81 2.89006 726.1C3.46006 725.09 2.87006 723.48 3.03006 722.16C3.16006 721.11 3.74006 720.12 3.98006 719.07C5.25006 713.31 7.00006 707.69 9.27006 702.26C11.0501 698 12.7701 693.66 15.0701 689.67C18.4501 683.8 22.1601 678.15 26.4701 672.84C30.2201 668.21 34.3101 663.95 38.6501 659.97C44.0301 655.04 49.7401 650.54 56.1601 646.86C60.0701 644.62 64.0101 642.44 68.0701 640.54C74.0801 637.73 80.2701 635.32 86.8401 633.92C90.2301 633.2 93.4501 631.86 97.0301 631.93C98.1701 631.95 99.3301 631.11 100.76 630.56C101 630.09 101.43 629.27 101.98 628.2C102.48 626.51 101.41 624.46 102.85 622.33C103.89 620.8 102.18 618.13 103.99 616.34C103.75 611.97 105.31 607.86 106.15 603.7C107.22 598.37 108.1 592.97 109.6 587.68C110.57 584.27 111.11 580.64 112 577.15C113.58 570.98 115.38 564.83 116.67 558.62C118.13 551.57 120.31 544.73 122.2 537.85C124.56 529.24 127.41 520.71 130.28 512.23C131.81 507.7 133.37 503.18 135.01 498.69C137.29 492.47 139.55 486.24 142.04 480.1C143.37 476.82 144.56 473.45 145.78 470.16C146.9 467.13 148.4 464.23 149.52 461.19C152.22 453.83 155.75 446.78 158.9 439.59C163.49 429.13 168.33 418.8 173.74 408.74C175.57 405.34 177.15 401.81 179.01 398.43C181.93 393.14 184.55 387.69 187.76 382.53C189.95 379.01 191.78 375.21 193.81 371.55C196.52 366.64 199.64 361.98 202.33 357.08C207.13 348.31 213.25 340.38 218.09 331.63C220.13 327.94 223.06 324.73 225.44 321.18C230.88 313.04 236.57 305.07 242.38 297.19C246.18 292.03 250.58 287.31 254.3 282.1C257.95 277 262.08 272.32 265.99 267.45C269.53 263.03 273.26 258.78 276.91 254.46C282.28 248.09 288.07 242.11 293.51 235.83C304.07 223.65 316.1 212.96 327.2 201.33C329.96 198.44 332.78 195.6 335.69 192.86C338.05 190.64 340.58 188.6 343.03 186.47C345.35 184.45 347.05 181.71 350.03 180.44C350.46 180.26 350.75 179.76 351.1 179.4C355.8 174.66 360.88 170.38 366.15 166.28C370.74 162.71 374.88 158.54 379.54 155.07C386.3 150.03 392.85 144.73 399.58 139.65C406.31 134.57 413.33 129.9 419.94 124.65C423 122.21 426.4 120.19 429.68 118.03C436.22 113.72 442.76 109.4 449.36 105.18C454.49 101.91 459.79 98.92 464.87 95.58C469.96 92.23 475.42 89.55 480.51 86.17C484.99 83.2 490.16 81.3 494.84 78.61C506.91 71.66 519.53 65.8 531.97 59.6C538.17 56.51 544.54 53.76 550.93 51.05C556.74 48.59 562.3 45.47 568.51 44C575.51 39.61 583.72 38.08 591.08 34.5C594.12 33.02 597.47 32.13 600.68 31.16C604.98 29.86 609.1 28.07 613.42 26.81C617.66 25.57 621.88 23.94 626.11 22.5C632.27 20.41 638.53 18.62 644.82 16.92C648.4 15.95 652.05 15.07 655.54 13.85C658.94 12.65 662.45 12.06 665.87 11.06C671.99 9.28997 678.26 8.08997 684.37 6.23997C687.49 5.28997 690.79 4.92996 693.98 4.10996C698.83 2.85996 703.86 2.33997 708.72 1.03997C709.32 0.879969 710.01 1.01998 710.83 1.01998V41.63C703.36 43.03 695.68 44.45 688.28 47.02C683.41 46.74 679.07 48.94 674.55 50.13C670.22 51.27 665.86 52.42 661.56 53.66C657.7 54.78 653.9 56.23 649.93 57.08C646.01 57.92 642.35 59.99 638.51 60.78C632.81 61.95 627.54 64.16 622.17 66.1C616.96 67.98 611.4 68.97 606.59 71.92C597.82 73.96 589.79 78.08 581.48 81.33C574.64 84 567.85 87.05 561.18 90.26C550.9 95.21 540.28 99.46 530.32 105.06C523.7 108.78 516.69 111.75 510.31 115.95C506.59 118.4 502.28 119.93 498.41 122.17C492.34 125.68 486.41 129.43 480.43 133.09C475.76 135.95 471.1 138.81 466.56 141.88C459.3 146.78 451.49 150.9 444.55 156.2C437.85 161.32 430.7 165.81 424.2 171.22C419.33 175.27 413.94 178.7 408.96 182.62C404.39 186.22 400.25 190.39 395.57 193.83C390.12 197.84 385.54 202.89 379.9 206.63C379.76 206.72 379.67 206.87 379.54 206.98C375.2 210.99 370.95 215.09 366.5 218.98C357.15 227.16 348.43 235.99 339.73 244.83C333.13 251.53 326.54 258.26 320.36 265.33C317.67 268.4 314.66 271.21 312.21 274.44C308.13 279.83 303.28 284.54 299.33 290.05C295.95 294.77 291.67 298.83 288.15 303.46C284.31 308.51 280.56 313.66 276.65 318.63C271.42 325.26 266.77 332.3 261.68 339.01C257.05 345.11 253.19 351.79 249 358.23C244.47 365.19 239.71 372.01 235.5 379.15C232.52 384.21 229.69 389.39 226.82 394.52C223.34 400.75 219.72 406.91 216.36 413.2C212.36 420.69 208.24 428.16 204.76 435.9C201.79 442.5 198.32 448.86 195.67 455.63C194.17 459.46 192.19 463.18 190.55 467C187.56 473.93 184.59 480.86 181.92 487.93C180.18 492.54 178.74 497.3 176.64 501.73C174.31 506.65 173.24 511.97 171.07 516.93C169.41 520.73 168.19 524.75 167.04 528.75C165.12 535.45 162.89 542.05 160.93 548.73C158.78 556.04 156.59 563.31 154.97 570.76C154.41 573.34 153.46 575.83 152.79 578.38C152.11 580.94 151.92 583.6 151.08 586.13C150.05 589.23 149.58 592.51 148.81 595.7C148.26 597.96 147.52 600.18 147.04 602.46C146.58 604.63 146.4 606.85 146 609.04C145.6 611.22 144.64 613.3 144.94 615.6C142.82 617.21 145.19 620.21 143.02 621.8C142.61 625.32 142.2 628.84 141.76 632.62C145.43 633.79 148.95 634.86 152.44 636.03C160.37 638.71 167.82 642.32 175.14 646.46C185.58 652.37 194.36 660.17 202.24 668.94C206.74 673.95 210.73 679.44 214.2 685.4C220.92 696.96 222.68 701.78 226.67 713.26C228.05 717.23 228.54 721.52 229.48 725.86H390.69C391.04 725.51 391.51 725.04 392.03 724.52C392.03 721.91 391.93 719.24 392.05 716.59C392.32 710.56 392.33 704.48 393.2 698.53C393.6 695.82 393.82 693.13 394.08 690.42C394.33 687.72 394.76 685.01 395.19 682.36C395.9 677.97 396.66 673.6 397.03 669.16C399.05 666.77 397.54 663.64 398.87 660.91C399.99 658.6 399.29 655.46 400.12 652.93C401.56 648.58 401.8 644.01 403.01 639.64C404.17 635.43 405.22 631.19 406.13 626.91C407.23 621.79 409.41 616.91 410.65 611.81C412.81 602.91 416.06 594.39 419.09 585.79C421.18 579.84 423.3 573.89 425.99 568.15C427.36 565.23 428.3 562.11 429.46 559.09C430.56 556.21 432.12 553.56 433.21 550.64C435.3 545.03 438.36 539.77 441.14 534.43C444.71 527.57 448.21 520.66 452.09 513.97C456 507.22 460.48 500.8 464.4 494.05C466.77 489.98 469.29 486.04 472.03 482.22C476 476.7 480.07 471.25 483.87 465.61C487.7 459.92 492.54 455.02 496.33 449.29C497.93 446.88 500.11 444.86 501.93 442.59C505.99 437.52 510.94 433.23 514.69 427.89C515.35 426.95 516.32 426.22 517.14 425.4C524.68 417.86 532.17 410.26 539.79 402.8C543.65 399.02 547.65 395.36 551.75 391.84C557.37 387.02 562.98 382.15 568.91 377.73C577.03 371.69 584.6 364.89 593.54 359.99C599.27 354.43 606.6 351.19 613.02 346.61C616.55 344.1 620.55 342.26 624.25 339.98C636.79 332.26 650.02 325.83 663.25 319.45C669.04 316.66 675.07 314.22 681.09 311.83C686.38 309.73 691.77 307.84 696.96 305.49C701.91 303.25 707.17 301.98 712.2 300.04C715.65 298.71 719.26 297.76 722.82 296.72C728.32 295.11 733.87 293.63 739.36 291.98C745.32 290.2 751.44 289.08 757.4 287.27C759.44 286.65 761.72 286.47 763.89 286.03C766.22 285.55 769.03 285.99 770.86 284.83C773.1 283.4 775.51 284.6 777.76 283.19C779.39 282.17 782.02 282.82 784.27 282.14C787.29 281.23 790.65 281.5 793.8 280.95C796.66 280.45 799.57 280.32 802.36 279.82C805.25 279.3 808.29 279.67 810.92 278.82C813.87 277.87 816.69 278.02 819.56 278.05C822.5 278.08 825.12 276.52 828.16 276.91C831.11 277.29 834.28 277.55 837.12 276.88C844.31 275.19 851.54 276.26 858.73 276.04C866.06 275.82 873.47 275.37 880.7 276.2C886.1 276.82 891.51 276.33 896.78 277.15C900.67 277.76 904.58 277.51 908.36 278.14C911.07 278.6 913.88 278.46 916.43 279.14C919.17 279.87 921.99 279.37 924.52 280.11C929.55 281.57 934.92 280.89 939.84 282.92C940.98 283.39 942.49 282.86 943.81 283.03C944.86 283.16 945.85 283.78 946.91 283.96C949.26 284.37 951.98 284.04 953.9 285.15C956.13 286.44 958.86 284.92 960.66 286.99C968.73 287.45 976.21 290.62 984.05 292.17C987.61 292.87 991.21 294.11 994.74 295.24C1002.68 297.79 1010.6 300.39 1018.52 303C1021.6 304.02 1024.83 304.76 1027.65 306.27C1031.63 308.4 1035.96 309.6 1040.06 311.33C1045.58 313.66 1051.04 316.18 1056.67 318.31C1061.55 320.15 1066.08 322.93 1070.78 325.27C1074.65 327.2 1078.76 328.74 1082.36 331.07C1088.12 334.8 1094.42 337.56 1100.1 341.46C1105.21 344.97 1110.84 347.73 1116.11 351.03C1119.98 353.46 1123.63 356.24 1127.38 358.86C1129.58 360.4 1131.8 361.89 1133.97 363.46C1137.82 366.26 1141.57 369.2 1145.47 371.92C1151.5 376.12 1156.82 381.22 1162.84 385.45C1165.6 387.39 1167.96 389.94 1170.54 392.17C1183.21 403.12 1194.9 415.13 1206.53 427.16C1211.6 432.41 1216.25 438.11 1221.02 443.65C1227.48 451.16 1233.52 459.04 1239.44 467C1245.08 474.59 1250.74 482.22 1255.62 490.3C1259.79 497.21 1264 504.13 1268.12 511.08C1275.4 523.35 1281.7 536.11 1287.87 548.93C1290.59 554.58 1293.79 560.15 1295.01 566.46C1298.77 571.88 1299.71 578.5 1302.66 584.3C1304.66 588.25 1305.64 592.72 1307 596.99C1308.13 600.53 1309.06 604.13 1310.21 607.66C1311.99 613.11 1313.45 618.65 1315.02 624.17C1316.72 630.15 1317.86 636.28 1319.76 642.21C1320.38 644.17 1319.9 646.2 1320.86 648.26C1321.89 650.47 1321.05 653.59 1322.18 655.68C1323.48 658.08 1322.72 660.6 1323.82 663.03C1325.02 665.67 1324.63 669 1325.03 672.02C1325.26 673.73 1325.76 675.4 1325.99 677.11C1326.2 678.68 1326.33 680.16 1326.84 681.75C1327.59 684.09 1327.35 686.75 1327.86 689.31C1328.77 693.89 1328.65 698.67 1329.04 703.36C1329.3 706.56 1329.82 709.74 1329.99 712.95C1330.16 716.11 1329.91 719.29 1330.09 722.44C1330.16 723.61 1330.92 724.74 1331.35 725.85H1491.65C1492.13 725.37 1492.48 725.02 1492.83 724.67C1493.36 716.3 1496.17 708.49 1499.08 700.76C1500.76 696.3 1502.77 691.92 1505.08 687.76C1508.37 681.84 1512.13 676.23 1516.42 670.91C1520.26 666.14 1524.46 661.74 1528.95 657.68C1534.24 652.9 1539.81 648.46 1546.08 644.85C1549.99 642.61 1553.93 640.45 1558 638.56C1564.03 635.76 1570.16 633.19 1576.76 631.94C1577.8 631.74 1578.76 631.15 1580.15 630.58C1579.73 627.57 1579.84 624.23 1578.7 621.4C1577.79 619.13 1578.46 616.74 1577.14 614.52C1576.16 612.87 1576.36 610.54 1576.01 608.51C1575.69 606.65 1575.27 604.8 1575.03 602.92C1574.77 600.88 1573.38 599.02 1574.01 596.84C1572.12 592.7 1571.98 588.06 1570.35 583.86C1569.6 581.92 1569.85 579.88 1569.22 577.85C1568.12 574.32 1566.77 570.79 1566.09 567.14C1565.43 563.59 1564.32 560.21 1563.41 556.75C1561.78 550.6 1559.8 544.57 1558 538.47C1556.73 534.17 1555.45 529.87 1553.98 525.64C1552.86 522.44 1551.87 519.19 1550.57 516.06C1549.27 512.92 1548.16 509.67 1547.22 506.47C1545.99 502.29 1544.08 498.41 1542.68 494.32C1540.2 487.05 1536.98 480.02 1534 472.92C1529.47 462.12 1524.59 451.48 1519.61 440.87C1516.99 435.29 1514.53 429.6 1511.59 424.22C1506.99 415.79 1502.89 407.08 1497.91 398.89C1492.97 390.77 1488.56 382.34 1483.24 374.4C1479.35 368.61 1475.85 362.49 1472.08 356.57C1468.38 350.75 1464.95 344.71 1460.68 339.33C1455.44 332.71 1450.99 325.54 1445.67 318.97C1440.95 313.15 1436.61 307.02 1431.87 301.19C1427.19 295.44 1422.51 289.71 1417.72 284.05C1413.52 279.1 1409.22 274.24 1405.02 269.3C1400.96 264.52 1396.21 260.41 1392.27 255.59C1384.37 245.94 1375.19 237.56 1366.26 228.97C1361.41 224.31 1356.65 219.5 1351.55 215.11C1346.13 210.44 1340.76 205.71 1335.42 200.96C1329.89 196.04 1324.19 191.28 1318.28 186.82C1310.28 180.79 1302.42 174.59 1294.38 168.61C1283.09 160.21 1271.43 152.36 1259.86 144.4C1253.44 139.98 1246.63 136.12 1240.03 131.96C1233.85 128.06 1227.4 124.62 1221.11 120.92C1213.36 116.36 1205.36 112.26 1197.46 107.99C1192.03 105.05 1186.6 102.05 1180.97 99.52C1175.2 96.93 1169.66 93.77 1163.8 91.49C1159.92 89.98 1156.41 87.72 1152.31 86.58C1148.36 85.48 1144.84 82.88 1140.94 81.48C1132.52 78.47 1124.33 74.9 1115.94 71.8C1107.27 68.59 1098.53 65.55 1089.82 62.46C1083.72 60.29 1077.45 58.43 1071.12 56.86C1067.4 55.94 1063.7 54.68 1060.06 53.42C1056.09 52.04 1051.99 51.04 1047.95 50.16C1044.74 49.46 1041.67 48.26 1038.41 47.64C1034.8 46.96 1031.09 46.28 1027.54 45.03C1023.58 43.64 1019.29 43.43 1015.29 42.02C1014.12 41.61 1012.68 41.96 1011.19 41.96V1.15998C1014.06 0.169979 1016.9 1.92998 1019.74 2.37998C1023.38 2.94998 1027.03 4.13997 1030.66 4.80997C1035.76 5.74997 1040.68 7.33997 1045.76 8.30997C1050.32 9.17997 1054.7 10.95 1059.24 11.9C1064.28 12.95 1069.17 14.45 1074.08 15.94C1079.86 17.69 1085.79 19.01 1091.48 21.02C1100.78 24.32 1110.34 26.8 1119.47 30.7C1124.25 32.74 1129.45 33.89 1134.3 35.93C1140.12 38.38 1146.13 40.31 1151.94 42.85C1157 45.07 1162.16 47.13 1167.37 49.05C1172.41 50.91 1177.07 53.77 1182.02 55.92C1194.63 61.38 1206.8 67.75 1219 74.05C1224.22 76.75 1229.47 79.47 1234.47 82.67C1237.81 84.8 1241.54 86.47 1245.05 88.45C1252.79 92.82 1260.25 97.63 1267.89 102.14C1273.8 105.63 1279.2 109.89 1285.34 113.06C1289.37 115.14 1292.81 118.36 1296.57 120.98C1302.9 125.38 1309.36 129.6 1315.62 134.11C1320.28 137.47 1324.71 141.15 1329.25 144.68C1335.17 149.28 1341.15 153.82 1347.02 158.49C1349.82 160.71 1352.34 163.28 1355.12 165.52C1360.83 170.12 1366.24 175.04 1371.71 179.91C1374.5 182.39 1377.21 185 1380.03 187.45C1396.24 201.49 1410.51 217.51 1425.89 232.39C1428.09 234.52 1429.91 237.05 1431.93 239.37C1433.85 241.56 1436.41 243.2 1437.61 246.02C1437.79 246.45 1438.29 246.74 1438.65 247.09C1443.04 251.43 1446.85 256.27 1450.71 261.08C1454.55 265.88 1458.97 270.25 1462.62 275.19C1466.4 280.29 1470.46 285.17 1474.16 290.34C1477.3 294.73 1480.63 299.03 1483.93 303.33C1488.55 309.35 1492.79 315.62 1497.03 321.91C1498.97 324.79 1501.1 327.54 1502.98 330.45C1506.72 336.22 1510.37 342.04 1514.01 347.88C1516.98 352.64 1519.87 357.45 1522.79 362.24C1524.33 364.77 1525.93 367.26 1527.37 369.84C1529.64 373.89 1531.58 378.14 1534.07 382.05C1537.58 387.56 1540.47 393.41 1543.57 399.13C1548.65 408.49 1553.5 418 1557.92 427.68C1561.18 434.82 1564.48 441.96 1567.54 449.19C1568.68 451.87 1570.08 454.46 1571.02 457.25C1571.96 460.02 1572.92 462.8 1574.07 465.48C1575.23 468.17 1577.15 470.63 1577.83 473.41C1579.56 480.51 1582.74 487.08 1585.19 493.89C1589.1 504.79 1592.69 515.78 1596.3 526.78C1597.99 531.93 1599.57 537.11 1600.98 542.34C1602.72 548.8 1604.48 555.25 1606.15 561.72C1608.01 568.93 1609.29 576.31 1611.87 583.33C1611.59 587.54 1613.43 591.39 1614.19 595.41C1614.97 599.5 1616.01 603.67 1616.76 607.75C1617.59 612.24 1619.01 616.69 1619.12 621.37C1619.17 623.34 1620.51 625.29 1619.64 627.76C1621.72 628.55 1623.54 629.64 1625.46 629.89C1632.49 630.78 1640.26 633.09 1649.22 636.55C1653.15 638.07 1656.77 640.07 1660.51 641.9C1666.93 645.04 1672.61 649.16 1678.22 653.53C1682.67 656.99 1686.63 660.9 1690.41 664.98C1695.59 670.58 1700.28 676.53 1704.17 683.22C1706.51 687.25 1708.98 691.31 1710.8 695.51C1713.36 701.42 1715.67 707.51 1717.13 713.91C1718.36 719.31 1719.15 724.75 1720.17 730.16C1721.38 736.58 1720.63 742.92 1720.97 749.28C1721.08 751.35 1721 753.36 1720.08 755.4C1719.26 757.23 1721 759.69 1719 761.45C1719.43 765.37 1717.99 768.96 1716.98 772.61C1715.95 776.34 1715.12 780.18 1713.62 783.71C1711.63 788.38 1709.52 793.01 1707.1 797.52C1703.72 803.8 1699.78 809.59 1695.41 815.2C1692.05 819.51 1688.26 823.36 1684.31 827.04C1678.61 832.36 1672.5 837.1 1665.67 841.07C1653.79 847.97 1650.44 849.18 1637.82 853.54C1633.84 854.91 1629.57 855.45 1624.98 856.47C1624.84 856.68 1624.06 857.35 1624.06 858.01C1624.07 860.61 1623.26 863.13 1623.16 865.6C1622.94 871.09 1620.84 876.27 1621 881.76C1619.65 883.62 1620.54 885.95 1619.87 887.8C1619.11 889.88 1619.54 892.03 1618.91 893.9C1617.04 899.41 1616.29 905.2 1615.26 910.82C1614.24 916.4 1612.52 921.83 1611.88 927.52C1611.38 931.97 1609.89 936.32 1608.74 940.68C1607.56 945.18 1606.15 949.62 1605.03 954.14C1603.8 959.12 1602.51 964.07 1601.03 968.98C1599.25 974.92 1597.89 981 1595.95 986.88C1592.95 995.97 1590.22 1005.18 1586.8 1014.09C1584.33 1020.53 1582.84 1027.44 1579.06 1033.38C1577.6 1041.22 1572.76 1047.81 1570.93 1055.51C1568.35 1058.56 1567.64 1062.49 1566.07 1066C1559.16 1081.5 1551.87 1096.82 1543.94 1111.82C1540.47 1118.39 1537.3 1125.14 1533.16 1131.38C1531.03 1134.58 1529.66 1138.26 1527.77 1141.63C1525.4 1145.83 1522.85 1149.93 1520.37 1154.07C1515.09 1162.92 1509.06 1171.3 1503.94 1180.26C1501.84 1183.94 1499.17 1187.31 1496.67 1190.75C1490.34 1199.47 1484.41 1208.48 1477.64 1216.89C1472.67 1223.06 1468.23 1229.66 1463.42 1235.97C1461.36 1238.68 1458.8 1241.01 1456.77 1243.74C1452.64 1249.3 1447.54 1254.05 1443.65 1259.79C1443.56 1259.93 1443.41 1260.02 1443.3 1260.15C1439.76 1264.02 1436.18 1267.84 1432.7 1271.76C1417.82 1288.55 1401.34 1303.76 1385.64 1319.75C1383.38 1322.06 1380.75 1324.01 1378.3 1326.14C1375.85 1328.27 1374.06 1331.15 1370.94 1332.52C1370.51 1332.71 1370.22 1333.2 1369.87 1333.56C1365.52 1337.95 1360.71 1341.78 1355.88 1345.62C1351.06 1349.44 1346.7 1353.87 1341.77 1357.52C1336.67 1361.3 1331.93 1365.53 1326.58 1369.02C1321.92 1372.06 1317.71 1375.79 1313.25 1379.15C1311.11 1380.76 1308.86 1382.23 1306.66 1383.76C1300.06 1388.36 1293.6 1393.15 1286.83 1397.49C1280.79 1401.36 1274.74 1405.25 1268.7 1409.11C1262.11 1413.32 1255.2 1417.02 1248.79 1421.53C1246.28 1423.3 1243.36 1424.48 1240.63 1425.94C1235.45 1428.72 1230.17 1431.35 1225.12 1434.34C1213.79 1441.04 1201.79 1446.42 1190.05 1452.29C1183.85 1455.39 1177.5 1458.19 1171.12 1460.89C1165.31 1463.35 1159.36 1465.6 1153.64 1468.16C1147.72 1470.81 1141.58 1472.85 1135.7 1475.57C1130.96 1477.76 1125.87 1479.19 1120.92 1480.92C1112.76 1483.78 1104.63 1486.71 1096.32 1489.14C1093.05 1490.1 1089.92 1491.39 1086.52 1492.1C1083.25 1492.79 1080.04 1494.12 1076.78 1495.1C1073.53 1496.08 1070.12 1496.67 1066.99 1497.98C1063.65 1499.37 1060.06 1499.62 1056.68 1500.85C1053.62 1501.96 1050.34 1502.46 1047.16 1503.23C1044.89 1503.78 1042.6 1504.28 1040.37 1504.94C1035.13 1506.47 1029.6 1506.76 1024.49 1508.85C1023.04 1509.45 1021.42 1508.8 1019.74 1509.46C1017.15 1510.47 1014.21 1510.58 1011.17 1511.11V1470.16C1016.05 1469.36 1020.76 1468.28 1025.49 1467.17C1029.12 1466.32 1032.71 1464.9 1036.6 1464.82C1038.22 1464.79 1040.16 1464.35 1041.57 1463.66C1045.56 1461.7 1049.93 1461.27 1054.08 1460.1C1059.15 1458.66 1064.32 1457.39 1069.32 1455.75C1072.07 1454.85 1074.98 1454.29 1077.74 1453.18C1080.34 1452.13 1083.32 1451.29 1086.27 1450.72C1089.35 1450.13 1092.65 1449.14 1095.48 1447.74C1100.67 1445.17 1106.26 1443.98 1111.59 1441.94C1116.34 1440.12 1121.14 1438.43 1125.85 1436.54C1130.71 1434.58 1135.45 1432.38 1140.48 1430.79C1142.92 1430.02 1145.16 1428.53 1147.66 1427.61C1151.69 1426.13 1155.35 1423.63 1159.38 1422.14C1165.21 1419.99 1170.46 1416.63 1176.18 1414.41C1181.97 1412.16 1187.47 1409.35 1192.85 1406.39C1198.14 1403.48 1203.67 1401 1208.84 1397.89C1214.97 1394.21 1221.19 1390.6 1227.47 1387.26C1235.31 1383.09 1242.54 1377.98 1250.35 1373.79C1256.96 1370.25 1262.87 1365.39 1269.19 1361.27C1276.85 1356.28 1284.01 1350.6 1291.68 1345.61C1296.62 1342.4 1301.02 1338.37 1305.7 1334.74C1311.49 1330.24 1317.37 1325.85 1323.11 1321.27C1326.16 1318.84 1328.9 1316.01 1331.93 1313.54C1337.73 1308.79 1343.27 1303.76 1348.89 1298.81C1351.83 1296.22 1354.6 1293.47 1357.55 1290.89C1368.16 1281.62 1378.1 1271.65 1387.81 1261.47C1392.57 1256.48 1397.41 1251.52 1401.91 1246.3C1404.47 1243.33 1407.43 1240.7 1409.74 1237.58C1413.77 1232.15 1418.78 1227.56 1422.59 1221.94C1424.49 1219.14 1427.17 1216.87 1429.22 1214.16C1433.44 1208.56 1438.3 1203.47 1442.06 1197.5C1444.01 1194.41 1446.48 1191.66 1448.69 1188.74C1451.76 1184.68 1454.96 1180.71 1457.85 1176.53C1462.68 1169.56 1467.3 1162.45 1472.03 1155.41C1475.86 1149.7 1479.77 1144.04 1482.99 1137.95C1484.52 1135.05 1486.41 1132.32 1488.21 1129.67C1490.25 1126.67 1490.98 1122.86 1493.94 1120.49C1496.94 1113.66 1501.11 1107.48 1504.55 1100.88C1508.91 1092.52 1513.31 1084.18 1517.61 1075.79C1519.22 1072.64 1520.41 1069.28 1521.9 1066.06C1523.38 1062.86 1525.36 1059.93 1526.28 1056.35C1527.18 1052.84 1529.46 1049.7 1531 1046.33C1534.89 1037.78 1538.16 1028.96 1541.85 1020.32C1543.65 1016.1 1545.33 1011.74 1546.81 1007.39C1548.3 1003.02 1549.55 998.5 1551.12 994.16C1552.65 989.93 1553.81 985.61 1555.16 981.33C1556.5 977.07 1558.56 973.01 1559.63 968.7C1561.61 960.7 1564.62 953 1566.12 944.85C1566.84 940.92 1568.3 937.09 1569.4 933.21C1570.04 930.95 1570.06 928.62 1570.91 926.36C1572.21 922.89 1572.5 919.09 1573.81 915.56C1574.52 913.66 1574.32 911.55 1574.82 909.51C1575.52 906.65 1576.26 903.7 1576.63 900.74C1577.01 897.74 1577.6 894.75 1578.21 891.84C1578.78 889.12 1579.29 886.34 1579.95 883.61C1580.59 880.99 1580.33 878.13 1581.09 875.56C1582.62 870.38 1582.3 864.9 1583.97 859.77C1584.31 858.73 1584.02 857.48 1584.02 855.91C1557.74 850.27 1535.49 837.6 1518.02 816.95C1505.78 802.49 1497.87 785.92 1493.62 767.16H1331.28C1330.95 767.49 1330.6 767.84 1330.02 768.42C1330.02 769.5 1329.91 770.81 1330.04 772.1C1330.72 779.18 1328.6 786.12 1329.02 793.19C1327.69 795.94 1328.41 798.94 1327.92 801.76C1327.45 804.46 1327.47 807.27 1326.83 809.81C1326.26 812.06 1326.57 814.36 1325.9 816.41C1325.23 818.47 1325.53 820.62 1324.89 822.49C1324.18 824.56 1324.67 826.82 1323.87 828.55C1322.92 830.61 1323.87 833.04 1322.7 834.53C1321.21 836.42 1323.29 838.98 1321.06 840.39C1321.14 842.49 1320.4 844.48 1320.17 846.48C1319.71 850.43 1318.28 854.09 1317.49 857.92C1316.84 861.11 1315.71 864.21 1315.07 867.4C1314.24 871.53 1312.96 875.54 1311.78 879.56C1309.13 888.59 1306.05 897.5 1303 906.41C1301.66 910.34 1299.97 914.15 1298.44 918.02C1297.14 921.31 1295.93 924.65 1294.53 927.9C1293.13 931.15 1291.31 934.24 1290.08 937.55C1286.29 947.72 1280.86 957.08 1275.98 966.7C1272.82 972.92 1269.47 979.06 1265.62 984.92C1262.21 990.12 1259.32 995.65 1256.01 1000.92C1253.58 1004.78 1250.83 1008.45 1248.25 1012.22C1246.92 1014.16 1245.76 1016.23 1244.33 1018.09C1239.86 1023.91 1235.7 1029.95 1230.98 1035.6C1226.23 1041.28 1221.8 1047.21 1216.9 1052.8C1214.54 1055.49 1211.96 1057.99 1209.72 1060.77C1201.17 1071.39 1190.77 1080.21 1181.38 1090C1179.38 1092.09 1176.98 1093.81 1174.75 1095.69C1172.53 1097.57 1170.71 1099.82 1168.18 1101.48C1165.37 1103.31 1163.18 1106.05 1160.43 1108.14C1154.33 1112.78 1148.42 1117.67 1142.31 1122.31C1134.37 1128.35 1126.32 1134.18 1117.91 1139.53C1112.51 1142.97 1107.09 1146.38 1101.66 1149.78C1096.13 1153.25 1090.35 1156.3 1084.71 1159.59C1078.72 1163.08 1072.34 1165.89 1066.08 1168.91C1060.11 1171.79 1054.2 1174.85 1048.05 1177.28C1040.61 1180.23 1033.12 1183.13 1025.71 1186.12C1016.81 1189.7 1007.7 1192.63 998.63 1195.52C992.02 1197.63 985.3 1199.78 978.36 1201C973.79 1201.8 969.33 1203.26 964.88 1204.62C962.91 1205.22 960.9 1204.77 958.85 1205.76C956.66 1206.81 953.53 1205.95 951.43 1207.09C949.03 1208.39 946.51 1207.61 944.08 1208.73C941.45 1209.94 938.11 1209.55 935.09 1209.95C933.38 1210.18 931.71 1210.66 930 1210.91C928.44 1211.14 926.96 1211.16 925.35 1211.75C923.05 1212.58 920.2 1211.41 917.83 1212.93C913.22 1212.16 908.83 1214.11 904.24 1214.01C901.05 1213.94 897.86 1214.73 894.65 1214.9C891.49 1215.07 888.18 1214.35 885.18 1215.07C879.96 1216.33 874.77 1215.8 869.56 1215.91C864.23 1216.03 858.89 1216.05 853.56 1215.91C844.03 1215.66 834.47 1215.65 824.99 1214.75C821.12 1214.38 817.16 1214.53 813.42 1213.76C810.68 1213.19 807.88 1213.52 805.34 1212.79C802.76 1212.05 800.15 1212.47 797.74 1211.84C792.53 1210.47 787.1 1210.68 781.92 1209.07C779.89 1208.44 777.55 1208.63 775.35 1208.01C773.08 1207.37 770.28 1207.9 768.38 1206.78C766.13 1205.46 763.44 1206.98 761.58 1205.02C756.8 1204.93 752.4 1203.14 747.84 1202C743.02 1200.79 738.23 1199.56 733.45 1198.14C728.56 1196.69 723.53 1195.56 718.67 1193.93C709.61 1190.9 700.32 1188.48 691.72 1184.16C687.28 1183.79 683.7 1181 679.52 1179.77C675.43 1178.56 671.83 1175.8 667.79 1174.35C662.51 1172.46 657.72 1169.67 652.75 1167.19C647.92 1164.78 643 1162.52 638.27 1159.91C628.32 1154.42 618.49 1148.74 608.94 1142.54C604.08 1139.38 599.19 1136.28 594.4 1133C589.97 1129.97 585.63 1126.83 581.27 1123.71C575.43 1119.54 570.06 1114.77 564.23 1110.58C561.21 1108.41 558.59 1105.67 555.76 1103.21C553.69 1101.41 551.57 1099.66 549.46 1097.9C547.35 1096.14 545.94 1093.61 543.18 1092.54C542.33 1092.21 541.74 1091.18 541.04 1090.48C535.5 1084.94 529.9 1079.47 524.44 1073.85C518.59 1067.82 512.73 1061.78 507.14 1055.51C502.11 1049.86 497.35 1043.95 492.63 1038.03C488.16 1032.43 483.45 1026.94 479.63 1020.9C474.86 1013.35 469.41 1006.29 464.78 998.62C460.67 991.82 456.39 985.03 452.16 978.28C447.51 970.85 444 962.69 440.01 954.84C438.19 951.26 436.23 947.74 434.66 944.06C432.06 937.97 429.25 931.98 426.83 925.8C424.81 920.64 423.02 915.36 420.71 910.35C418.36 905.26 417.08 899.86 415.04 894.69C412.71 888.8 410.95 882.67 409.32 876.58C407.8 870.87 406.05 865.2 404.85 859.38C404.17 856.1 403.57 852.71 402.2 849.51C401.43 847.72 401.62 845.52 401.13 843.48C399.98 838.77 399.7 833.86 398 829.25C398.7 826.27 397 823.58 396.94 820.67C396.91 818.97 396.31 817.28 396 815.58C395.7 813.88 396.77 811.91 395.02 810.47C394.94 810.4 395 810.15 394.99 809.99C394.66 806.13 394.38 802.26 393.97 798.41C393.76 796.37 393.2 794.36 393.03 792.32C392.86 790.33 393.42 788.21 392.92 786.34C391.21 780.04 392.47 773.62 391.85 767.13H229.02C223.99 789.54 213.97 809.57 197.36 826.19C180.75 842.81 160.78 852.96 137.83 858.02C138.27 860.03 138.67 861.68 138.98 863.34C139.3 865.04 138.82 866.69 139.79 868.53C140.74 870.33 140.06 872.8 140.84 875.07C141.81 877.88 141.29 881.17 142.08 884.08C143.19 888.16 143.32 892.41 144.81 896.43C145.5 898.28 145.58 900.48 145.82 902.47C146.29 906.26 147.56 909.84 148.04 913.61C148.52 917.3 149.8 920.84 150.83 924.43C151.73 927.57 152.2 930.86 152.87 934.07C153.83 938.66 155.4 943.07 156.34 947.68C157.76 954.66 160.48 961.31 162.13 968.28C162.78 971.05 164 973.81 164.96 976.58C166.38 980.66 167.68 984.79 168.97 988.92C170.12 992.61 171.75 996.12 172.92 999.78C174.05 1003.32 175.1 1006.83 176.65 1010.24C178.49 1014.3 179.85 1018.58 181.3 1022.81C182.75 1027.04 184.88 1030.99 186.08 1035.34C186.89 1038.27 188.69 1040.91 189.97 1043.71C191.83 1047.77 193.6 1051.87 195.46 1055.93C199.62 1065.04 203.65 1074.22 208.03 1083.22C211.48 1090.31 215.45 1097.14 219.17 1104.09C221.27 1108.03 223.24 1112.13 225.88 1115.86C228.36 1119.36 229.66 1123.68 232.04 1127.26C238.99 1137.68 244.97 1148.72 252.33 1158.88C255.45 1163.18 257.96 1167.91 261.01 1172.26C264.94 1177.84 269.18 1183.21 273.21 1188.72C276.57 1193.31 279.77 1198.01 283.14 1202.59C284.66 1204.66 286.42 1206.57 288.07 1208.56C292.26 1213.63 296.53 1218.64 300.48 1223.9C302.62 1226.75 305.28 1229.21 307.49 1232.02C311.3 1236.87 316.12 1240.84 319.54 1246.01C319.72 1246.28 320.01 1246.48 320.24 1246.72C326.25 1253.06 332.2 1259.47 338.29 1265.73C344.33 1271.94 350.25 1278.32 356.75 1284.03C361.45 1288.16 365.71 1292.74 370.43 1296.81C375.85 1301.48 381.24 1306.18 386.57 1310.96C392.08 1315.9 397.8 1320.65 403.7 1325.1C411.7 1331.13 419.59 1337.3 427.6 1343.31C440.75 1353.17 454.47 1362.16 468.02 1371.4C474.18 1375.6 480.98 1378.87 487.17 1383.03C492.49 1386.61 498.32 1389.27 503.65 1392.85C508.11 1395.85 513.19 1397.93 517.97 1400.46C524.53 1403.94 530.89 1407.86 537.67 1410.85C545.42 1414.27 552.88 1418.32 560.81 1421.38C565.4 1423.15 569.63 1425.86 574.23 1427.61C580.85 1430.13 587.37 1432.91 593.95 1435.53C602.26 1438.84 610.56 1442.18 619.08 1444.84C624.25 1446.45 629.12 1448.83 634.42 1450.16C637.16 1450.84 640.05 1451.72 642.81 1452.75C645.49 1453.75 648.25 1455.45 651.4 1454.96C654.83 1457.28 659.02 1457.45 662.78 1458.87C666.39 1460.24 670.27 1461.07 674.04 1461.76C677.15 1462.33 680.04 1463.56 683.13 1464.17C686.89 1464.91 690.75 1465.58 694.46 1466.88C698.42 1468.27 702.71 1468.5 706.71 1469.89C707.88 1470.3 709.32 1469.95 710.8 1469.95V1510.76C707.92 1511.72 705.09 1509.98 702.24 1509.53C698.59 1508.95 694.92 1508.11 691.33 1507.02C687.74 1505.94 683.77 1505.95 680.34 1504.55C678.21 1503.68 675.67 1505.03 674.01 1502.94C669.31 1502.49 664.97 1500.55 660.35 1499.63C654.44 1498.45 648.82 1496 642.83 1494.89C641.21 1494.59 639.76 1493.36 638.14 1492.99C627.26 1490.46 616.82 1486.52 606.34 1482.81C598.8 1480.15 591.27 1477.38 583.79 1474.52C576.45 1471.72 569.39 1468.22 561.86 1465.88C558.79 1464.93 555.94 1463.29 553 1461.94C547.96 1459.62 542.97 1457.18 537.89 1454.96C526.13 1449.84 514.74 1443.98 503.46 1437.91C498.12 1435.04 492.65 1432.4 487.48 1429.15C483.97 1426.95 480.22 1424.98 476.49 1423.13C471.88 1420.85 467.76 1417.8 463.18 1415.48C458.46 1413.09 454.16 1409.89 449.64 1407.1C445.26 1404.39 441.16 1401.29 436.6 1398.8C431.64 1396.09 427.21 1392.41 422.63 1389.05C415.09 1383.52 407.31 1378.32 399.93 1372.54C394.42 1368.23 388.76 1364.09 383.27 1359.73C377.6 1355.22 371.97 1350.67 366.44 1345.99C361.1 1341.47 355.99 1336.68 350.63 1332.22C330.98 1315.87 313.87 1296.93 295.75 1279.02C289.74 1273.08 284.48 1266.35 278.8 1260.04C275.14 1255.97 271.39 1251.89 268.17 1247.47C263.85 1241.53 258.9 1236.09 254.49 1230.22C250.75 1225.25 246.99 1220.23 243.05 1215.38C239.77 1211.35 237.28 1206.66 233.92 1202.72C229.68 1197.74 226.76 1191.88 222.58 1186.84C218.9 1182.4 216.14 1177.2 213.11 1172.28C207.65 1163.41 201.99 1154.65 196.86 1145.56C192.06 1137.05 187.23 1128.55 182.46 1120.02C176.04 1108.54 170.47 1096.65 164.56 1084.92C161.44 1078.74 158.75 1072.33 156.02 1065.96C153.54 1060.16 150.47 1054.58 148.95 1048.39C144.4 1041.3 143.28 1032.72 139.05 1025.49C137.5 1018.36 134.17 1011.83 131.98 1004.92C129.88 998.29 127.69 991.69 125.63 985.05C124.02 979.88 122.37 974.71 121.03 969.46C119.03 961.62 116.73 953.87 114.83 946C113.42 940.15 112.42 934.12 110.06 928.5C110.47 924.27 108.32 920.49 107.82 916.38C107.48 913.51 106.83 910.54 106 907.69C105.22 904.99 105.06 902.18 104.15 899.46C103.31 896.94 103.38 894.11 102.97 891.44C102.73 889.9 102.23 888.39 102.01 886.85C101.8 885.29 102.43 883.55 100.98 882.27C101.66 879.29 100.16 876.57 99.9101 873.69C99.5101 868.94 98.2101 864.3 97.9201 859.52C97.8901 859.01 97.0801 858.55 96.6601 858.1L96.6801 858.16ZM432 773.83C432 776.16 431.45 778.68 432.15 780.78C432.89 783.03 433.14 785.19 432.95 787.41C432.75 789.74 433.66 791.81 433.97 794C434.35 796.69 433.27 799.56 435 802.08C434.99 807.06 436.47 811.87 436.87 816.76C437.25 821.4 439.27 825.73 439 830.42C441.05 831.83 439.06 834.37 440.4 835.82C441.94 837.48 440.24 839.56 441.65 841.37C442.69 842.71 442.56 844.94 443.01 846.76C444.32 852.05 445.58 857.35 447.03 862.6C448.59 868.27 450.25 873.92 452.04 879.52C453.17 883.04 454.79 886.46 455.83 889.93C458.2 897.79 461.59 905.23 464.5 912.86C467.23 920.04 470.69 926.97 474.04 933.9C477.95 941.99 482.47 949.76 486.86 957.61C490.74 964.54 494.75 971.36 499.03 978.04C503.08 984.38 507.06 990.79 511.48 996.87C517.02 1004.48 522.84 1011.9 528.79 1019.19C532.47 1023.7 536.3 1028.1 540.13 1032.47C544.78 1037.78 550.09 1042.49 554.61 1047.98C557.19 1051.11 560.43 1053.65 563.59 1056.27C568.39 1060.23 572.3 1065.2 577.37 1068.93C579.71 1070.65 581.78 1072.75 583.94 1074.67C589.49 1079.61 595.44 1084.02 601.22 1088.65C604.54 1091.31 608.21 1093.55 611.6 1096.13C615.87 1099.39 620.3 1102.39 624.81 1105.3C628.23 1107.51 631.51 1109.98 635.07 1111.94C639.96 1114.63 644.72 1117.56 649.56 1120.32C654.68 1123.24 659.88 1126.06 665.04 1128.92C673.12 1133.41 681.64 1137.07 690.17 1140.63C697.41 1143.66 704.7 1146.58 712.01 1149.47C716.88 1151.39 721.69 1153.71 726.75 1154.87C734.64 1156.69 742.14 1159.73 750.01 1161.56C755.76 1162.9 761.53 1164.16 767.18 1165.93C769.58 1166.68 772.57 1166.02 774.65 1167.17C777.05 1168.49 779.91 1166.96 781.91 1169C784.11 1168.29 785.97 1170.24 787.98 1169.92C790.38 1169.55 792.32 1171.21 794.57 1170.98C796.71 1170.76 798.64 1171.64 800.67 1171.92C805.56 1172.6 810.47 1173.04 815.35 1173.88C819.3 1174.56 823.38 1174.17 827.44 1174.86C832.54 1175.73 837.78 1175.1 843.03 1175.79C849.75 1176.67 856.67 1176.18 863.5 1175.95C870.2 1175.73 876.91 1176.77 883.61 1175.12C886.44 1174.42 889.59 1175.13 892.58 1174.97C895.45 1174.81 898.3 1174.27 901.17 1174.02C905.69 1173.63 910.22 1173.34 914.75 1173.01C914.92 1173 915.15 1173.08 915.24 1173C917.05 1171.29 919.33 1172.43 921.32 1171.96C923.34 1171.48 925.27 1170.68 927.42 1170.99C928.07 1171.08 929.06 1171.29 929.37 1170.96C931.26 1168.89 933.77 1170.6 935.89 1169.73C938.03 1168.86 940.38 1168.23 942.68 1168.08C946.99 1167.8 950.98 1165.77 955.35 1166.01C960.91 1163.48 967.04 1162.94 972.83 1161.18C976.66 1160.01 980.63 1159.06 984.52 1157.96C988.53 1156.83 992.45 1155.4 996.43 1154.14C1004.67 1151.52 1012.64 1148.23 1020.71 1145.18C1030.1 1141.62 1039.14 1137.35 1048.26 1133.22C1053.18 1130.99 1057.95 1128.42 1062.69 1125.81C1068.41 1122.67 1074.17 1119.63 1079.7 1116.13C1083.77 1113.55 1088.11 1111.39 1092.03 1108.53C1096.1 1105.57 1100.4 1102.9 1104.62 1100.21C1113.19 1094.74 1121.05 1088.38 1129.13 1082.29C1135.57 1077.44 1141.69 1072.15 1147.7 1066.76C1154.33 1060.82 1160.73 1054.62 1167.09 1048.39C1169.76 1045.78 1172.02 1042.76 1174.56 1040.01C1179.12 1035.05 1183.89 1030.27 1188.29 1025.17C1192.04 1020.82 1195.38 1016.12 1198.95 1011.61C1202.93 1006.58 1207.51 1001.93 1210.84 996.51C1216.49 987.32 1222.83 978.59 1228.45 969.36C1233.8 960.59 1238.5 951.47 1243.75 942.65C1246.49 938.05 1248.17 932.82 1250.59 928C1253.85 921.52 1256.73 914.88 1259.35 908.13C1260.97 903.97 1262.8 899.89 1264.2 895.62C1264.91 893.46 1265.57 891.21 1266.47 889.07C1267.3 887.08 1268.15 885.1 1269.04 883.14C1270.01 881 1270.1 878.65 1270.9 876.42C1272.83 871.05 1274.64 865.53 1275.85 860C1277.55 852.2 1280.59 844.68 1281.03 836.61C1283.02 835.17 1281.13 832.67 1282.41 831.2C1283.95 829.43 1282.33 827.18 1283.86 825.22C1284.8 824.01 1284.54 821.6 1284.86 819.74C1285.63 815.38 1286.29 810.97 1286.88 806.58C1287.24 803.9 1287.74 801.21 1287.98 798.51C1288.23 795.8 1288.24 793.13 1288.87 790.39C1289.62 787.16 1288.56 783.59 1290.02 780.34C1289.56 773.77 1290.73 767.28 1290.97 760.75C1291.2 754.43 1291.15 748.08 1290.99 741.75C1290.83 735.38 1291.87 728.95 1290.03 722.67C1290.73 715.76 1288.84 708.97 1289.03 702.09C1289.04 701.59 1289.25 700.87 1289 700.63C1287.14 698.8 1288.37 696.54 1288.04 694.51C1287.68 692.32 1287.11 690.12 1287.09 687.93C1287.06 684.52 1285.32 681.31 1286.03 677.85C1284.24 675.93 1285.6 673.42 1284.83 671.34C1283.36 667.34 1283.11 663.08 1282.08 658.99C1281.12 655.18 1281.03 651.12 1279.82 647.41C1277.6 640.62 1276.71 633.48 1274.08 626.8C1273.06 624.21 1273.16 621.13 1271.9 618.72C1270.55 616.15 1270.32 613.37 1269.36 610.76C1266.97 604.25 1264.68 597.72 1262.14 591.25C1258.76 582.63 1255.54 573.98 1251.28 565.75C1250.5 564.24 1249.48 562.78 1249.08 561.17C1247.82 556.14 1245.2 551.65 1242.62 547.37C1239.65 542.44 1237.24 537.2 1234.17 532.31C1231.29 527.72 1228.68 522.93 1225.81 518.31C1222.99 513.79 1219.96 509.4 1217.04 504.94C1214.89 501.67 1212.95 498.24 1210.6 495.12C1204.94 487.6 1199.22 480.1 1193.27 472.81C1189.59 468.3 1185.76 463.9 1181.93 459.53C1177.28 454.22 1171.97 449.51 1167.45 444.02C1164.87 440.89 1161.63 438.35 1158.47 435.73C1153.67 431.77 1149.76 426.8 1144.69 423.07C1142.35 421.35 1140.28 419.25 1138.12 417.33C1132.57 412.39 1126.62 407.98 1120.84 403.35C1117.52 400.69 1113.85 398.46 1110.46 395.87C1106.19 392.61 1101.76 389.61 1097.25 386.7C1093.83 384.49 1090.56 382.01 1087 380.05C1082.11 377.36 1077.37 374.4 1072.5 371.69C1067.22 368.75 1061.79 366.06 1056.6 362.96C1052.6 360.57 1048.26 358.94 1044.09 356.94C1036.3 353.21 1028.41 349.78 1020.36 346.63C1015.78 344.84 1011.3 342.54 1006.61 341.27C1001.81 339.96 997.51 337.38 992.44 336.7C988.54 336.18 984.87 334.09 981.01 333.04C976.95 331.95 972.82 330.96 968.83 329.79C960.88 327.46 952.72 326.16 944.75 324.04C942.15 323.35 938.97 324.04 936.79 322.8C934.2 321.33 931.17 323.2 929.01 320.99C924.02 321.04 919.21 319.81 914.33 319.05C911.49 318.61 908.63 318.84 905.71 318.17C902.16 317.36 898.37 317.77 894.64 317.13C889.87 316.31 884.96 316.84 880.05 316.21C873.33 315.35 866.41 315.82 859.58 316.04C852.88 316.26 846.17 315.22 839.47 316.87C836.64 317.57 833.47 317.24 830.51 316.92C827.34 316.57 824.5 317.96 821.42 318.05C816.72 318.17 812.03 318.66 807.33 318.99C807.16 319 806.92 318.92 806.84 319C805.53 320.39 803.82 319.83 802.25 320.02C800.54 320.22 798.87 320.76 797.16 320.97C793.81 321.38 790.22 321.06 787.15 322.18C784.74 323.07 782.24 322.74 779.84 323.83C777.48 324.9 774.34 324.18 771.89 325.15C770.11 325.85 768.3 325.44 766.78 326.07C762.29 327.93 757.51 328.78 752.87 329.84C743.76 331.92 734.9 334.79 726.08 337.67C719.52 339.81 712.93 342.01 706.54 344.78C702.2 346.66 697.63 348.21 693.23 350.04C688.83 351.88 684.29 353.46 680.19 355.97C679 356.7 677.82 357.68 676.51 357.92C671.34 358.87 667 361.79 662.64 364.23C657.23 367.25 651.65 370 646.34 373.22C642.21 375.72 637.87 377.91 633.96 380.7C623.94 387.84 613.3 394.06 603.59 401.71C598.23 405.93 592.9 410.24 587.38 414.29C582.56 417.83 578.32 422.12 573.75 425.99C568.62 430.33 564.18 435.46 558.95 439.76C555.96 442.22 553.65 445.53 550.99 448.35C544.25 455.5 537.4 462.53 531.3 470.25C529.19 472.92 526.51 475.2 524.71 478.05C523.38 480.16 521.51 481.67 520.1 483.62C517.68 486.94 515.5 490.45 512.89 493.61C508.95 498.39 506.43 504.17 502.09 508.65C497.56 517.52 491.52 525.48 486.9 534.33C483.83 540.21 480.44 546.02 477.18 551.84C474.41 556.79 472.47 562.21 470.06 567.38C469.21 569.2 467.72 570.79 467.15 572.67C465.62 577.71 463.09 582.33 461.3 587.25C458.94 593.77 456.55 600.28 454.06 606.75C452.38 611.1 451.29 615.61 450.04 620.09C448.92 624.1 446.89 627.91 446.2 631.96C444.85 639.86 441.53 647.31 441.09 655.38C439.08 656.81 440.99 659.31 439.71 660.79C438.18 662.55 439.77 664.8 438.26 666.77C437.32 667.99 437.58 670.4 437.26 672.26C436.5 676.62 435.82 681.03 435.24 685.42C434.88 688.1 434.38 690.79 434.14 693.49C433.9 696.2 433.87 698.87 433.25 701.61C432.51 704.85 433.57 708.41 432.1 711.66C432.52 718.56 431.42 725.38 431.16 732.25C430.89 739.24 431.35 746.26 431.03 753.24C430.71 760.16 432.08 766.95 432.1 773.83H432ZM1691.25 743.25C1691.4 736.89 1690.25 730.71 1688.95 724.58C1687.9 719.59 1686.39 714.68 1684.42 709.98C1680.3 700.16 1674.26 691.5 1667.07 683.74C1663.6 679.99 1659.4 676.84 1655.23 673.83C1649.31 669.56 1643.03 665.84 1636.03 663.54C1634.12 662.91 1632.18 662.38 1630.27 661.76C1628.51 661.2 1626.79 660.47 1625 660.03C1623.01 659.55 1620.92 658.95 1618.94 659.1C1616.72 659.27 1614.95 658.01 1612.85 657.97C1604.39 657.8 1595.98 658.03 1587.7 660C1582.73 661.19 1577.78 662.55 1573.08 664.51C1563.27 668.61 1554.59 674.65 1546.83 681.84C1543.08 685.32 1539.98 689.55 1536.9 693.68C1532.43 699.67 1528.83 706.2 1526.3 713.25C1525 716.89 1524.14 720.68 1522.98 724.37C1521.79 728.18 1522.06 732.19 1521.12 736.07C1520.47 738.74 1520.9 741.71 1521.02 744.53C1521.15 747.4 1520.92 750.22 1521.79 753.17C1522.51 755.64 1522.22 758.55 1523 761.19C1524.45 766.08 1525.47 771.16 1527.45 775.83C1531.94 786.38 1538.54 795.63 1546.46 803.91C1547.88 805.4 1549.8 806.41 1551.3 807.84C1555.69 812.03 1560.86 815.04 1566.08 818.01C1570.25 820.38 1574.66 822.21 1579.21 823.71C1585.79 825.87 1592.59 827.03 1599.42 827.95C1602.2 828.32 1605.07 828.03 1607.9 828.01C1610.79 827.99 1613.62 827.76 1616.51 827.21C1619.12 826.72 1621.93 826.66 1624.54 825.97C1629.32 824.7 1634.23 823.62 1638.73 821.65C1648.74 817.25 1657.82 811.24 1665.72 803.67C1670.23 799.36 1673.91 794.25 1677.44 789.08C1683.92 779.57 1687.39 768.83 1689.88 757.78C1690.94 753.08 1690.82 748.11 1691.23 743.26L1691.25 743.25ZM201.25 745.33C201.41 738.97 200.27 732.79 198.95 726.66C197.88 721.68 196.45 716.74 194.47 712.04C190.34 702.23 184.31 693.56 177.13 685.8C173.66 682.05 169.46 678.9 165.29 675.89C159.37 671.62 153.14 667.82 146.09 665.6C144.17 665 142.24 664.45 140.33 663.83C138.57 663.26 136.87 662.49 135.08 662.05C133.09 661.56 131 660.94 129.02 661.12C126.78 661.33 125.01 660.05 122.93 660C114.48 659.8 106.07 660.04 97.7801 661.99C92.8001 663.16 87.8201 664.52 83.1601 666.49C72.6001 670.97 63.3501 677.57 55.0801 685.5C53.5901 686.93 52.5601 688.82 51.1501 690.34C47.0301 694.77 43.9701 699.9 40.9901 705.12C38.6101 709.3 36.8101 713.72 35.3001 718.25C33.1101 724.81 31.9701 731.63 31.0701 738.47C30.7001 741.25 30.9101 744.13 31.0401 746.95C31.1601 749.66 30.9101 752.3 31.8201 755.09C32.6201 757.54 32.1101 760.45 32.9701 763.12C34.5401 767.98 35.4201 773.11 37.4101 777.77C41.7101 787.83 47.9401 796.75 55.3601 804.79C57.0901 806.67 59.4201 807.99 61.2401 809.8C65.1201 813.64 69.8001 816.28 74.4401 818.99C77.2401 820.63 80.0901 822.23 83.0601 823.49C85.8901 824.69 89.1001 825.08 91.7901 826.5C93.4201 827.36 95.5801 825.98 96.6701 828.02C101.06 828.69 105.42 829.71 109.83 829.94C117.93 830.36 126.02 830.05 133.98 828.05C139.09 826.77 144.2 825.45 149.05 823.41C159.49 819 168.73 812.62 176.69 804.64C180.47 800.85 183.75 796.47 186.78 791.92C189.99 787.1 192.72 782.07 194.92 776.78C197.18 771.36 198.68 765.61 199.87 759.87C200.86 755.14 200.82 750.2 201.23 745.35L201.25 745.33Z" fill="#5A6473" fill-opacity="0.2"/>
</svg>
